<svg width="61" height="61" viewBox="0 0 61 61" fill="none" xmlns="http://www.w3.org/2000/svg">
<path d="M30.5 0C13.6512 0 0 13.6512 0 30.5C0 47.3488 13.6512 61 30.5 61C47.3488 61 61 47.3488 61 30.5C61 13.6512 47.3488 0 30.5 0ZM48.2097 33.9436C48.2097 34.7552 47.5456 35.4194 46.7339 35.4194H35.4194V46.7339C35.4194 47.5456 34.7552 48.2097 33.9436 48.2097H27.0565C26.2448 48.2097 25.5806 47.5456 25.5806 46.7339V35.4194H14.2661C13.4544 35.4194 12.7903 34.7552 12.7903 33.9436V27.0565C12.7903 26.2448 13.4544 25.5806 14.2661 25.5806H25.5806V14.2661C25.5806 13.4544 26.2448 12.7903 27.0565 12.7903H33.9436C34.7552 12.7903 35.4194 13.4544 35.4194 14.2661V25.5806H46.7339C47.5456 25.5806 48.2097 26.2448 48.2097 27.0565V33.9436Z" fill="#A3DE83"/>
</svg>
