<svg width="919" height="813" viewBox="0 0 919 813" fill="none" xmlns="http://www.w3.org/2000/svg">
<g clip-path="url(#clip0_55_2)">
<rect width="919" height="813" fill="#E0DFDF"/>
<g opacity="0.21">
<path d="M422.849 477.159C424.97 479.233 426.605 481.326 427.753 483.437C428.911 485.54 429.668 487.618 430.025 489.671C430.382 491.725 430.39 493.748 430.048 495.741C429.706 497.734 429.122 499.655 428.296 501.504C427.47 503.353 426.443 505.135 425.214 506.847C423.975 508.549 422.64 510.131 421.211 511.593C419.288 513.561 417.435 515.148 415.652 516.356C413.869 517.563 411.968 518.527 409.949 519.247C407.927 519.946 405.71 520.445 403.298 520.744C400.866 521.042 398.059 521.266 394.877 521.418L394.761 508.083C396.78 508.848 398.865 509.282 401.015 509.387C403.168 509.513 405.197 509.434 407.101 509.152C409.015 508.86 410.693 508.421 412.137 507.834C413.589 507.239 414.631 506.617 415.263 505.971C415.776 505.446 416.341 504.834 416.957 504.136C417.552 503.435 418.126 502.677 418.679 501.861C419.222 501.054 419.693 500.195 420.093 499.285C420.483 498.383 420.713 497.463 420.783 496.524C420.854 495.585 420.715 494.643 420.367 493.698C420.019 492.753 419.383 491.829 418.459 490.926C417.512 490.001 416.493 489.389 415.401 489.091C414.3 488.803 413.165 488.72 411.997 488.842C410.849 488.967 409.69 489.263 408.519 489.73C407.348 490.198 406.218 490.715 405.129 491.282C404.04 491.848 403.007 492.414 402.03 492.98C401.064 493.557 400.205 494.036 399.452 494.418C398.061 495.111 396.605 495.859 395.084 496.662C393.572 497.456 392.011 498.185 390.403 498.849C388.807 499.524 387.159 500.057 385.46 500.449C383.782 500.842 382.09 500.975 380.385 500.848C378.681 500.721 376.966 500.272 375.242 499.503C373.518 498.734 371.806 497.518 370.106 495.857C366.98 492.802 364.863 489.742 363.753 486.678C362.652 483.605 362.284 480.616 362.648 477.71C363.022 474.795 363.98 472.012 365.523 469.361C367.078 466.721 368.927 464.304 371.07 462.112C372.545 460.603 374.285 459.199 376.292 457.899C378.308 456.59 380.451 455.505 382.72 454.644C385.009 453.785 387.353 453.19 389.751 452.859C392.159 452.519 394.485 452.558 396.731 452.976L396.898 466.36C394.736 465.217 392.658 464.468 390.663 464.113C388.668 463.757 386.826 463.679 385.137 463.878C383.447 464.078 381.93 464.5 380.585 465.146C379.26 465.794 378.186 466.539 377.362 467.382C376.556 468.207 375.689 469.174 374.761 470.282C373.833 471.391 373.124 472.585 372.632 473.864C372.143 475.163 371.985 476.511 372.158 477.908C372.343 479.317 373.132 480.701 374.523 482.062C375.527 483.043 376.566 483.692 377.639 484.008C378.722 484.315 379.823 484.411 380.94 484.294C382.061 484.198 383.181 483.919 384.302 483.457C385.425 483.015 386.521 482.511 387.589 481.942C388.657 481.374 389.669 480.796 390.623 480.208C391.577 479.62 392.471 479.128 393.303 478.733C394.683 478.029 396.138 477.271 397.668 476.458C399.19 475.655 400.754 474.921 402.362 474.257C403.98 473.584 405.631 473.036 407.316 472.613C409.022 472.191 410.738 472.045 412.463 472.174C414.188 472.303 415.922 472.743 417.665 473.493C419.398 474.253 421.126 475.475 422.849 477.159ZM436.163 397.848L484.417 445.016L473.082 456.612L467.315 450.975C468.25 454.583 468.328 457.893 467.547 460.905C466.755 463.906 465.228 466.563 462.966 468.878C460.016 471.895 456.722 473.952 453.084 475.05C449.457 476.159 445.702 476.429 441.82 475.859C437.947 475.28 434.051 473.926 430.13 471.798C426.221 469.681 422.51 466.905 418.996 463.471C415.483 460.036 412.623 456.389 410.418 452.529C408.201 448.658 406.759 444.793 406.092 440.934C405.434 437.066 405.618 433.306 406.645 429.655C407.659 425.993 409.641 422.653 412.591 419.636C414.093 418.099 415.801 416.91 417.716 416.07C419.61 415.228 421.638 414.727 423.801 414.569C425.942 414.409 428.157 414.585 430.444 415.098C432.742 415.623 435.017 416.49 437.268 417.701L431.808 402.304L436.163 397.848ZM448.784 432.998C447.529 431.771 446.155 430.53 444.663 429.272C443.17 428.015 441.616 426.844 440 425.759C438.395 424.685 436.756 423.76 435.082 422.985C433.399 422.219 431.739 421.715 430.103 421.472C428.458 421.238 426.875 421.34 425.354 421.777C423.833 422.215 422.436 423.085 421.163 424.387C419.89 425.69 419.067 427.102 418.694 428.625C418.33 430.138 418.298 431.711 418.599 433.343C418.88 434.973 419.432 436.621 420.256 438.288C421.072 439.965 422.034 441.593 423.144 443.173C424.266 444.764 425.467 446.286 426.746 447.738C428.026 449.19 429.276 450.513 430.496 451.706C431.717 452.899 433.073 454.125 434.566 455.382C436.07 456.65 437.624 457.822 439.229 458.895C440.845 459.981 442.5 460.912 444.195 461.688C445.88 462.475 447.541 462.989 449.177 463.232C450.804 463.485 452.37 463.412 453.874 463.014C455.388 462.606 456.782 461.751 458.055 460.449C459.218 459.259 459.956 457.91 460.27 456.403C460.572 454.884 460.56 453.287 460.234 451.613C459.917 449.928 459.354 448.223 458.543 446.496C457.733 444.77 456.79 443.087 455.714 441.449C454.638 439.811 453.491 438.269 452.273 436.822C451.065 435.365 449.902 434.091 448.784 432.998ZM449.402 369.175L505.218 423.736L493.869 435.346L423.389 366.451L427.758 361.981L449.402 369.175ZM501.092 382.156C502.872 381.111 504.568 379.993 506.179 378.801C507.788 377.588 509.293 376.265 510.695 374.831C512.178 373.313 513.377 371.745 514.289 370.127C515.2 368.488 515.711 366.79 515.824 365.031C515.928 363.282 515.571 361.467 514.754 359.587C513.917 357.706 512.483 355.772 510.452 353.788C508.81 352.182 507.125 350.893 505.399 349.92C503.673 348.947 501.972 348.348 500.297 348.122C498.623 347.895 496.998 348.039 495.425 348.554C493.851 349.068 492.382 350.023 491.018 351.419C489.744 352.722 488.896 354.183 488.472 355.803C488.028 357.421 487.918 359.109 488.141 360.866C488.353 362.612 488.839 364.407 489.602 366.252C490.364 368.097 491.274 369.893 492.331 371.641C493.4 373.4 494.581 375.068 495.874 376.643C497.167 378.219 498.452 379.631 499.73 380.88C499.958 381.103 500.18 381.32 500.397 381.532C500.625 381.755 500.857 381.963 501.092 382.156ZM519.507 344.251C521.492 346.191 522.998 348.176 524.025 350.206C525.063 352.247 525.72 354.291 525.995 356.337C526.291 358.386 526.262 360.4 525.909 362.382C525.544 364.353 524.964 366.269 524.17 368.132C523.365 369.983 522.369 371.731 521.185 373.377C520.021 375.024 518.779 376.522 517.46 377.872C515.784 379.586 513.978 381.137 512.041 382.525C510.126 383.914 508.051 385.101 505.816 386.087C507.911 387.64 510.051 388.954 512.237 390.027C514.431 391.091 516.599 391.772 518.74 392.069C520.861 392.364 522.941 392.199 524.981 391.572C527.009 390.935 528.916 389.702 530.703 387.875C531.893 386.657 532.802 385.282 533.429 383.751C534.056 382.22 534.413 380.599 534.501 378.889C534.591 377.2 534.42 375.457 533.989 373.662C533.549 371.876 532.866 370.099 531.939 368.331L539.088 365.535C540.537 368.435 541.424 371.328 541.75 374.212C542.065 377.085 541.936 379.863 541.364 382.548C540.781 385.221 539.829 387.735 538.508 390.091C537.188 392.446 535.629 394.542 533.834 396.379C530.885 399.396 527.544 401.581 523.811 402.935C520.058 404.287 516.167 404.799 512.138 404.471C508.089 404.141 504.005 402.989 499.888 401.017C495.761 399.054 491.862 396.277 488.188 392.686C484.515 389.096 481.651 385.26 479.594 381.18C477.529 377.108 476.285 373.052 475.863 369.011C475.443 364.991 475.866 361.089 477.132 357.306C478.401 353.544 480.51 350.154 483.459 347.137C484.897 345.665 486.488 344.289 488.232 343.007C489.985 341.715 491.835 340.61 493.782 339.691C495.731 338.793 497.766 338.125 499.888 337.689C501.999 337.242 504.15 337.164 506.341 337.455C508.553 337.748 510.762 338.432 512.968 339.507C515.183 340.573 517.362 342.154 519.507 344.251ZM576.937 319.525C579.059 321.599 580.694 323.692 581.842 325.803C582.99 327.915 583.747 329.993 584.114 332.037C584.471 334.091 584.479 336.114 584.137 338.107C583.795 340.1 583.211 342.021 582.384 343.87C581.549 345.729 580.522 347.51 579.303 349.213C578.063 350.915 576.729 352.497 575.3 353.959C573.376 355.927 571.523 357.514 569.741 358.722C567.958 359.929 566.057 360.893 564.037 361.612C562.016 362.311 559.794 362.815 557.373 363.124C554.95 363.412 552.147 363.632 548.965 363.784L548.85 350.449C550.869 351.214 552.949 351.653 555.09 351.767C557.252 351.883 559.285 351.8 561.19 351.518C563.094 351.235 564.773 350.796 566.225 350.2C567.678 349.604 568.715 348.988 569.338 348.351C569.86 347.817 570.425 347.205 571.032 346.516C571.636 345.806 572.21 345.047 572.753 344.241C573.306 343.425 573.777 342.566 574.167 341.665C574.567 340.754 574.801 339.829 574.872 338.89C574.942 337.951 574.803 337.009 574.455 336.064C574.107 335.119 573.471 334.195 572.547 333.292C571.601 332.367 570.577 331.76 569.475 331.471C568.384 331.173 567.253 331.086 566.085 331.208C564.938 331.332 563.778 331.628 562.607 332.096C561.436 332.564 560.306 333.081 559.217 333.647C558.128 334.214 557.095 334.78 556.118 335.346C555.153 335.923 554.293 336.402 553.541 336.784C552.15 337.477 550.694 338.225 549.172 339.028C547.66 339.822 546.095 340.556 544.478 341.229C542.882 341.904 541.238 342.432 539.549 342.815C537.87 343.208 536.179 343.341 534.474 343.214C532.769 343.086 531.055 342.638 529.33 341.869C527.606 341.1 525.894 339.884 524.195 338.223C521.069 335.168 518.951 332.108 517.841 329.044C516.741 325.971 516.373 322.982 516.737 320.076C517.101 317.17 518.055 314.392 519.598 311.741C521.152 309.101 523.006 306.68 525.158 304.478C526.633 302.969 528.374 301.565 530.381 300.265C532.388 298.965 534.53 297.88 536.808 297.01C539.088 296.161 541.432 295.566 543.84 295.225C546.238 294.894 548.565 294.933 550.82 295.342L550.987 308.726C548.815 307.593 546.737 306.844 544.751 306.479C542.757 306.123 540.915 306.045 539.225 306.244C537.527 306.453 536.009 306.875 534.673 307.512C533.349 308.159 532.274 308.905 531.45 309.748C530.644 310.573 529.777 311.54 528.849 312.648C527.922 313.757 527.212 314.951 526.721 316.23C526.231 317.529 526.074 318.877 526.247 320.274C526.432 321.683 527.22 323.067 528.612 324.427C529.616 325.409 530.654 326.058 531.728 326.374C532.802 326.691 533.897 326.791 535.015 326.674C536.145 326.568 537.265 326.289 538.377 325.837C539.509 325.386 540.609 324.877 541.678 324.308C542.737 323.75 543.744 323.176 544.698 322.588C545.661 321.99 546.554 321.499 547.378 321.113C548.767 320.399 550.222 319.641 551.743 318.838C553.274 318.025 554.843 317.287 556.451 316.623C558.059 315.96 559.71 315.411 561.405 314.979C563.101 314.567 564.817 314.42 566.551 314.54C568.277 314.669 570.011 315.109 571.753 315.859C573.487 316.619 575.215 317.841 576.937 319.525ZM620.891 305.402L564.993 272.832L606.107 320.525L597.878 328.945L545.945 261.716L558.118 249.263L615.335 282.571L580.857 226.001L593.03 213.547L660.035 265.357L646.488 279.216L598.788 240.587L633.064 292.948L620.891 305.402ZM658.001 170.906L706.255 218.074L694.92 229.67L689.153 224.033C690.097 227.631 690.175 230.941 689.385 233.962C688.593 236.963 687.066 239.621 684.804 241.935C681.854 244.952 678.56 247.01 674.922 248.108C671.295 249.217 667.545 249.481 663.672 248.902C659.79 248.332 655.889 246.983 651.968 244.855C648.059 242.738 644.348 239.963 640.834 236.528C637.321 233.094 634.461 229.447 632.256 225.587C630.039 221.716 628.602 217.846 627.944 213.978C627.277 210.119 627.456 206.364 628.482 202.713C629.497 199.05 631.479 195.71 634.429 192.693C635.931 191.156 637.639 189.968 639.554 189.127C641.448 188.285 643.476 187.785 645.639 187.627C647.78 187.466 649.995 187.643 652.282 188.156C654.58 188.68 656.855 189.548 659.106 190.759L653.646 175.361L658.001 170.906ZM670.622 206.056C669.367 204.829 667.993 203.587 666.501 202.33C665.008 201.072 663.454 199.901 661.838 198.816C660.242 197.733 658.603 196.808 656.92 196.043C655.237 195.277 653.577 194.773 651.941 194.529C650.296 194.295 648.713 194.397 647.192 194.835C645.671 195.272 644.274 196.142 643.001 197.445C641.728 198.747 640.909 200.155 640.546 201.668C640.172 203.191 640.136 204.768 640.437 206.4C640.727 208.021 641.279 209.669 642.094 211.346C642.91 213.022 643.877 214.646 644.996 216.216C646.118 217.807 647.318 219.329 648.598 220.781C649.877 222.234 651.127 223.556 652.348 224.75C653.569 225.943 654.925 227.168 656.418 228.425C657.921 229.694 659.476 230.865 661.081 231.939C662.688 233.033 664.338 233.969 666.033 234.746C667.727 235.523 669.388 236.037 671.015 236.29C672.642 236.543 674.212 236.465 675.726 236.058C677.231 235.659 678.62 234.809 679.893 233.506C681.056 232.316 681.794 230.968 682.108 229.46C682.41 227.941 682.398 226.345 682.072 224.67C681.755 222.986 681.192 221.281 680.381 219.554C679.571 217.827 678.628 216.145 677.552 214.507C676.476 212.869 675.334 211.322 674.125 209.865C672.907 208.418 671.74 207.148 670.622 206.056ZM733.636 159.22C735.758 161.294 737.397 163.382 738.555 165.485C739.703 167.596 740.455 169.679 740.813 171.732C741.17 173.786 741.178 175.809 740.836 177.802C740.494 179.795 739.91 181.716 739.084 183.565C738.257 185.415 737.23 187.196 736.002 188.909C734.771 190.601 733.437 192.183 731.999 193.654C730.075 195.622 728.222 197.21 726.44 198.417C724.657 199.625 722.76 200.584 720.75 201.294C718.719 202.002 716.498 202.506 714.086 202.805C711.663 203.094 708.855 203.318 705.665 203.479L705.549 190.145C707.568 190.909 709.652 191.344 711.803 191.448C713.956 191.574 715.989 191.491 717.903 191.199C719.807 190.917 721.485 190.478 722.938 189.882C724.39 189.286 725.428 188.669 726.051 188.032C726.564 187.507 727.128 186.896 727.744 186.197C728.349 185.487 728.923 184.729 729.466 183.922C730.009 183.115 730.481 182.257 730.88 181.346C731.279 180.435 731.514 179.51 731.585 178.571C731.655 177.632 731.516 176.69 731.168 175.745C730.82 174.801 730.184 173.877 729.26 172.973C728.313 172.048 727.289 171.441 726.188 171.152C725.087 170.864 723.957 170.776 722.798 170.89C721.641 171.023 720.482 171.319 719.32 171.778C718.149 172.245 717.019 172.762 715.93 173.329C714.832 173.904 713.794 174.475 712.817 175.041C711.852 175.618 710.992 176.098 710.24 176.48C708.849 177.172 707.397 177.916 705.885 178.71C704.364 179.513 702.799 180.246 701.191 180.91C699.594 181.585 697.951 182.114 696.261 182.496C694.583 182.889 692.887 183.027 691.173 182.909C689.468 182.782 687.754 182.334 686.029 181.564C684.305 180.795 682.593 179.58 680.894 177.918C677.768 174.863 675.655 171.799 674.554 168.726C673.445 165.662 673.076 162.672 673.45 159.757C673.814 156.852 674.768 154.073 676.311 151.422C677.865 148.782 679.714 146.366 681.857 144.173C683.341 142.655 685.087 141.246 687.094 139.946C689.1 138.646 691.238 137.566 693.507 136.705C695.797 135.846 698.14 135.252 700.539 134.921C702.946 134.58 705.273 134.619 707.519 135.037L707.7 148.407C705.528 147.274 703.445 146.53 701.45 146.174C699.456 145.818 697.614 145.74 695.924 145.94C694.235 146.139 692.722 146.557 691.386 147.193C690.052 147.85 688.973 148.6 688.149 149.444C687.343 150.268 686.476 151.235 685.548 152.344C684.621 153.453 683.911 154.646 683.42 155.925C682.94 157.215 682.782 158.563 682.946 159.97C683.131 161.378 683.919 162.762 685.311 164.123C686.315 165.104 687.358 165.748 688.441 166.055C689.514 166.372 690.61 166.472 691.728 166.355C692.857 166.25 693.978 165.971 695.089 165.518C696.212 165.077 697.308 164.572 698.377 164.004C699.445 163.436 700.456 162.857 701.41 162.269C702.365 161.681 703.258 161.189 704.091 160.794C705.47 160.09 706.925 159.332 708.456 158.519C709.986 157.706 711.556 156.968 713.164 156.305C714.772 155.641 716.418 155.097 718.104 154.674C719.809 154.253 721.525 154.106 723.25 154.235C724.985 154.355 726.719 154.795 728.452 155.555C730.186 156.315 731.914 157.536 733.636 159.22ZM728.131 110.356L770.789 152.054L759.413 163.692L716.755 121.994L709.72 129.19L704.125 123.721L711.159 116.524L693.415 99.1793L704.792 87.5413L722.536 104.886L734.283 92.8688L739.878 98.3383L728.131 110.356ZM772.516 104.487C774.287 103.451 775.982 102.333 777.603 101.131C779.203 99.9283 780.708 98.6052 782.118 97.1621C783.593 95.6535 784.791 94.0854 785.713 92.4577C786.624 90.8189 787.131 89.1249 787.234 87.3756C787.338 85.6264 786.982 83.8118 786.165 81.932C785.336 80.0411 783.907 78.1032 781.876 76.1183C780.233 74.5126 778.549 73.2234 776.823 72.2507C775.088 71.2875 773.387 70.688 771.721 70.4523C770.046 70.226 768.418 70.3747 766.835 70.8983C765.262 71.4125 763.792 72.3678 762.428 73.764C761.154 75.0665 760.306 76.5277 759.883 78.1477C759.448 79.7565 759.342 81.4395 759.565 83.1967C759.767 84.9522 760.254 86.7475 761.026 88.5827C761.788 90.4273 762.698 92.2237 763.755 93.9718C764.824 95.7311 766 97.4031 767.284 98.988C768.577 100.563 769.862 101.976 771.14 103.224C771.368 103.448 771.59 103.665 771.807 103.877C772.035 104.1 772.271 104.303 772.516 104.487ZM790.931 66.5813C792.916 68.5215 794.417 70.5113 795.435 72.5508C796.474 74.5921 797.135 76.6312 797.419 78.6682C797.706 80.7256 797.672 82.7452 797.319 84.727C796.954 86.6976 796.375 88.614 795.58 90.4763C794.775 92.3274 793.784 94.0711 792.609 95.7073C791.435 97.364 790.189 98.867 788.87 100.216C787.194 101.931 785.392 103.477 783.465 104.856C781.55 106.245 779.47 107.437 777.226 108.432C779.321 109.985 781.466 111.294 783.661 112.358C785.846 113.431 788.009 114.116 790.15 114.414C792.28 114.699 794.36 114.534 796.391 113.917C798.419 113.28 800.331 112.043 802.126 110.206C803.308 108.997 804.212 107.627 804.839 106.096C805.466 104.565 805.823 102.944 805.911 101.234C806.01 99.5352 805.839 97.7927 805.399 96.0065C804.968 94.211 804.285 92.4341 803.349 90.6762L810.499 87.8802C811.956 90.7708 812.843 93.6629 813.16 96.5564C813.475 99.4294 813.346 102.208 812.775 104.892C812.191 107.566 811.239 110.08 809.918 112.435C808.598 114.791 807.044 116.882 805.258 118.709C802.309 121.727 798.963 123.917 795.221 125.28C791.477 126.623 787.586 127.135 783.548 126.815C779.499 126.485 775.415 125.334 771.298 123.362C767.181 121.389 763.286 118.608 759.612 115.017C755.939 111.427 753.07 107.596 751.004 103.524C748.939 99.4529 747.695 95.3968 747.273 91.3559C746.862 87.3261 747.285 83.4244 748.542 79.6509C749.82 75.8791 751.933 72.4846 754.883 69.4673C756.312 68.0055 757.903 66.6289 759.656 65.3374C761.4 64.0554 763.245 62.9549 765.192 62.0359C767.15 61.1281 769.19 60.4561 771.312 60.0198C773.413 59.5817 775.564 59.5037 777.765 59.7856C779.967 60.0881 782.176 60.7722 784.391 61.838C786.606 62.9038 788.786 64.4849 790.931 66.5813ZM819.373 14.3443L826.157 33.7286C824.784 32.9187 823.187 32.0538 821.365 31.1338C819.541 30.1933 817.712 29.4506 815.88 28.9058C814.039 28.3704 812.273 28.1463 810.581 28.2337C808.89 28.321 807.471 28.9503 806.327 30.1216C805.282 31.1898 804.707 32.4512 804.602 33.9055C804.494 35.3394 804.706 36.8568 805.238 38.4579C805.779 40.0495 806.554 41.6869 807.564 43.3699C808.562 45.0418 809.655 46.6507 810.843 48.1967C812.04 49.7334 813.235 51.1581 814.428 52.4708C815.63 53.7741 816.687 54.8718 817.6 55.7639L841.795 79.4148L830.419 91.0529L782.165 43.8849L786.534 39.4152L802.365 45.7098C801.184 43.2902 800.237 40.9266 799.526 38.6189C798.806 36.3207 798.425 34.0975 798.383 31.9494C798.33 29.7902 798.665 27.7357 799.389 25.786C800.101 23.8251 801.299 21.9826 802.985 20.2585C803.855 19.3683 804.917 18.4642 806.171 17.5463C807.426 16.6284 808.777 15.8509 810.225 15.214C811.693 14.5789 813.21 14.1564 814.776 13.9464C816.342 13.7364 817.875 13.869 819.373 14.3443Z" fill="#008DDA"/>
<path d="M351.288 632.554L378.206 605.016C380.432 602.739 380.188 599.261 378.117 597.237L298.611 519.519C296.333 517.293 292.855 517.537 290.831 519.608L263.913 547.145C261.687 549.422 261.931 552.9 264.002 554.924L343.508 632.642C345.579 634.666 349.264 634.624 351.288 632.554ZM275.829 550.695L294.854 531.232L366.285 601.057L347.261 620.52L275.829 550.695ZM265.069 720.756L291.987 693.219C294.213 690.941 293.969 687.463 291.899 685.439L233.511 628.365C231.234 626.139 227.756 626.383 225.732 628.454L198.814 655.991C196.588 658.269 196.832 661.746 198.902 663.77L257.29 720.845C259.36 722.868 262.843 723.034 265.069 720.756ZM229.754 640.078L235.966 646.15L223.683 646.29L229.754 640.078ZM217.408 652.708L242.384 652.424L248.803 658.698L211.134 659.127L217.408 652.708ZM216.527 665.208L255.014 664.77L261.433 671.044L222.945 671.482L216.527 665.208ZM229.364 677.756L267.851 677.318L274.269 683.592L235.782 684.03L229.364 677.756ZM241.994 690.102L279.662 689.673L273.388 696.092L248.412 696.376L241.994 690.102ZM254.831 702.65L267.114 702.51L261.042 708.722L254.831 702.65ZM100.872 631.512C87.307 644.975 71.1107 625.094 71.1107 625.094C59.5021 612.532 69.6263 602.589 70.6382 601.553C71.6502 600.518 81.3603 590.17 94.1833 601.49C93.9809 601.697 114.225 617.437 100.872 631.512C101.074 631.305 101.074 631.305 100.872 631.512ZM213.864 773.139C216.707 771.059 217.277 767.163 215.197 764.32L174.199 706.024L228.748 749.629C231.228 751.648 234.913 751.606 237.342 749.122C239.77 746.637 239.931 742.745 237.649 740.109L169.465 667.791L148.502 642.845C148.088 642.441 148.488 641.617 149.104 641.815L163.053 644.113C165.514 644.495 167.759 643.855 169.793 642.603L202.296 620.121C205.751 617.829 206.104 612.912 203.206 610.078C201.135 608.054 197.855 607.682 195.619 609.141L165.512 626.272L136.984 620.25C136.574 620.254 136.367 620.052 136.165 620.259C133.708 620.287 132.48 620.301 130.437 620.734C121.853 622.06 113.297 625.842 113.297 625.842L123.14 645.181L112.641 640.182C110.666 628.534 104.994 633.922 104.387 634.543C103.577 635.371 98.5223 640.957 110.212 642.667L115.449 653.049L95.8866 643.239C95.8866 643.239 92.902 650.849 91.5597 658.849C91.3667 659.875 91.3806 661.103 91.1876 662.129L93.0327 698.348C93.3143 705.101 99.3094 710.152 106.058 709.461L144.715 705.95L205.459 772.211C207.534 774.644 211.224 775.012 213.864 773.139ZM110.38 693.442L111.013 677.055L131.676 693.609L110.38 693.442ZM300.399 676.743L210.54 588.906C212.057 578.242 208.858 567.017 200.369 558.719C198.299 556.695 196.233 555.081 193.965 553.673L215.418 531.726C217.644 529.449 221.127 529.614 223.197 531.638L335.003 640.929C337.281 643.155 337.116 646.638 335.092 648.708L307.971 676.453C306.154 678.725 302.47 678.767 300.399 676.743ZM192.274 567.001C183.164 558.096 168.217 558.061 159.109 567.378C150.002 576.695 150.169 591.435 159.486 600.543C168.596 609.448 183.543 609.483 192.651 600.166C201.758 590.848 201.591 576.109 192.274 567.001ZM187.363 585.279C187.381 586.917 187.193 588.352 186.595 589.792C186.397 590.409 186.402 590.818 186.816 591.223C187.23 591.628 187.851 592.235 188.266 592.64C188.68 593.045 188.684 593.454 188.28 593.868C187.672 594.489 187.268 594.903 186.66 595.525C186.256 595.939 185.846 595.943 185.225 595.336C184.811 594.931 184.604 594.729 184.19 594.324C183.362 593.515 183.362 593.515 182.345 594.14C181.126 594.973 180.109 595.599 178.683 596.23C177.662 596.446 177.46 596.653 176.834 595.636C176.415 594.822 176.001 594.417 175.582 593.603C175.164 592.789 175.366 592.582 176.18 592.163C177.606 591.533 179.032 590.902 180.251 590.069C180.858 589.448 181.668 588.62 182.068 587.796C182.661 585.947 181.621 584.526 179.574 584.549C178.962 584.761 178.351 584.972 177.739 585.184C176.313 585.815 174.684 586.652 173.051 587.08C170.397 587.725 168.143 587.545 166.274 585.314C164.199 582.881 163.964 580.222 165.367 577.544C165.763 576.311 165.97 576.514 164.934 575.502C164.727 575.3 164.313 574.895 164.106 574.692C163.485 574.085 163.48 573.676 164.088 573.055C164.29 572.848 164.492 572.64 164.695 572.433C166.111 570.984 166.111 570.984 167.561 572.401C168.596 573.413 168.596 573.413 169.815 572.58C170.832 571.954 171.646 571.535 172.662 570.91C173.274 570.698 173.684 570.693 173.895 571.305C174.314 572.119 174.733 572.934 175.152 573.748C175.57 574.562 175.368 574.769 174.554 575.188C172.921 575.616 171.499 576.656 170.492 578.1C170.087 578.514 169.885 578.722 169.687 579.338C169.089 580.778 170.129 582.199 171.56 581.978C172.379 581.969 173.193 581.55 173.805 581.339C175.231 580.708 176.455 580.285 177.881 579.654C182.573 578.168 186.7 580.987 187.363 585.279Z" fill="#41C9E2"/>
</g>
</g>
<defs>
<clipPath id="clip0_55_2">
<rect width="919" height="813" fill="white"/>
</clipPath>
</defs>
</svg>
