<svg width="55" height="39" viewBox="0 0 55 39" fill="none" xmlns="http://www.w3.org/2000/svg">
<path d="M16.5 19.25C21.8195 19.25 26.125 14.9445 26.125 9.625C26.125 4.30547 21.8195 0 16.5 0C11.1805 0 6.875 4.30547 6.875 9.625C6.875 14.9445 11.1805 19.25 16.5 19.25ZM23.1 22H22.3867C20.5992 22.8594 18.6141 23.375 16.5 23.375C14.3859 23.375 12.4094 22.8594 10.6133 22H9.9C4.43437 22 0 26.4344 0 31.9V34.375C0 36.6523 1.84766 38.5 4.125 38.5H28.875C31.1523 38.5 33 36.6523 33 34.375V31.9C33 26.4344 28.5656 22 23.1 22ZM41.25 19.25C45.8047 19.25 49.5 15.5547 49.5 11C49.5 6.44531 45.8047 2.75 41.25 2.75C36.6953 2.75 33 6.44531 33 11C33 15.5547 36.6953 19.25 41.25 19.25ZM45.375 22H45.0484C43.8539 22.4125 42.5906 22.6875 41.25 22.6875C39.9094 22.6875 38.6461 22.4125 37.4516 22H37.125C35.3719 22 33.7562 22.507 32.3383 23.3234C34.4352 25.5836 35.75 28.5828 35.75 31.9V35.2C35.75 35.3891 35.707 35.5695 35.6984 35.75H50.875C53.1523 35.75 55 33.9023 55 31.625C55 26.3055 50.6945 22 45.375 22Z" fill="#FA7070"/>
</svg>
