<svg width="60" height="55" viewBox="0 0 60 55" fill="none" xmlns="http://www.w3.org/2000/svg">
<path d="M60 27.415C60 42.5558 46.5684 54.83 30 54.83C13.4316 54.83 0 42.5558 0 27.415C0 12.2743 13.4316 0 30 0C46.5684 0 60 12.2743 60 27.415Z" fill="#41C9E2"/>
<path d="M29.3432 6.7065C23.5025 6.7065 18.7695 11.0317 18.7695 16.3691C18.7695 17.3 19.2442 19.8961 20.271 21.3332C20.271 21.3332 24.1286 24.5578 29.3335 28.8049C24.7666 28.8365 19.8017 28.8551 16.0278 31.123C13.3435 32.7362 11.3177 35.5809 10.6933 38.4609C10.1995 40.7384 8.22945 43.5431 12.1728 45.2923C13.7848 46.0073 19.2374 50.033 25.4907 54.5199C26.9619 54.7226 28.4669 54.83 30 54.83C45.9212 54.83 58.9383 43.4934 59.9316 29.1731C48.5867 19.1809 34.2627 7.81309 34.2627 7.81309C32.7907 7.05747 30.2361 6.7065 29.3432 6.7065Z" fill="black" fill-opacity="0.196078"/>
<path d="M29.344 26.0344C35.1847 26.0344 39.9196 21.7075 39.9196 16.3701C39.9196 11.0326 35.1847 6.70576 29.344 6.70576C23.5033 6.70576 18.7685 11.0326 18.7685 16.3701C18.7685 21.7075 23.5033 26.0344 29.344 26.0344Z" fill="white"/>
<path d="M49.5059 38.4598C49.9059 40.7624 51.6316 43.5164 47.773 45.2724C43.9143 47.0282 36.1488 48.1241 30.0995 48.1241C24.0501 48.1241 16.1153 47.0417 12.172 45.2926C8.22859 43.5434 10.1992 40.7373 10.693 38.4598C11.3174 35.5798 13.3427 32.7369 16.027 31.1237C20.01 28.7301 25.3326 28.837 30.0995 28.7955C34.9703 28.7532 40.4886 28.4329 44.5259 30.9234C47.1875 32.5653 49.0025 35.5614 49.5059 38.4598Z" fill="white"/>
<path d="M30 47.8676L25.7904 42.4125L30 33.2079L34.2095 42.4125L30 47.8676ZM30 34.2003L25.7904 28.7453H34.2095L30 34.2003Z" fill="#4F5D73"/>
</svg>
