<svg width="27" height="19" viewBox="0 0 27 19" fill="none" xmlns="http://www.w3.org/2000/svg">
<path d="M8.1 9.45C10.7114 9.45 12.825 7.33641 12.825 4.725C12.825 2.11359 10.7114 0 8.1 0C5.48859 0 3.375 2.11359 3.375 4.725C3.375 7.33641 5.48859 9.45 8.1 9.45ZM11.34 10.8H10.9898C10.1123 11.2219 9.13781 11.475 8.1 11.475C7.06219 11.475 6.09188 11.2219 5.21016 10.8H4.86C2.17687 10.8 0 12.9769 0 15.66V16.875C0 17.993 0.907031 18.9 2.025 18.9H14.175C15.293 18.9 16.2 17.993 16.2 16.875V15.66C16.2 12.9769 14.0231 10.8 11.34 10.8ZM20.25 9.45C22.4859 9.45 24.3 7.63594 24.3 5.4C24.3 3.16406 22.4859 1.35 20.25 1.35C18.0141 1.35 16.2 3.16406 16.2 5.4C16.2 7.63594 18.0141 9.45 20.25 9.45ZM22.275 10.8H22.1147C21.5283 11.0025 20.9081 11.1375 20.25 11.1375C19.5919 11.1375 18.9717 11.0025 18.3853 10.8H18.225C17.3644 10.8 16.5712 11.0489 15.8752 11.4497C16.9045 12.5592 17.55 14.0316 17.55 15.66V17.28C17.55 17.3728 17.5289 17.4614 17.5247 17.55H24.975C26.093 17.55 27 16.643 27 15.525C27 12.9136 24.8864 10.8 22.275 10.8Z" fill="white"/>
</svg>
