<svg width="27" height="26" viewBox="0 0 27 26" fill="none" xmlns="http://www.w3.org/2000/svg">
<path d="M26.1955 14.2939H14.4183L22.2616 22.1373C22.5614 22.437 23.0548 22.4614 23.363 22.171C25.2837 20.3614 26.6049 17.922 26.9926 15.1798C27.0591 14.7103 26.6695 14.2939 26.1955 14.2939ZM25.4098 11.0777C25.0008 5.14865 20.2629 0.410764 14.3339 0.00179471C13.8812 -0.0294736 13.5001 0.352198 13.5001 0.805836V11.9115H24.6063C25.0599 11.9115 25.4411 11.5304 25.4098 11.0777ZM11.1177 14.2939V2.51666C11.1177 2.04267 10.7013 1.65306 10.2323 1.71956C4.31761 2.55537 -0.203384 7.72258 0.00705698 13.9152C0.223453 20.2751 5.69937 25.4904 12.0622 25.4105C14.5637 25.3792 16.8751 24.5732 18.7755 23.2252C19.1676 22.9473 19.1934 22.37 18.8534 22.0301L11.1177 14.2939Z" fill="white"/>
</svg>
