<svg width="28" height="31" viewBox="0 0 28 31" fill="none" xmlns="http://www.w3.org/2000/svg">
<path d="M1.54376 0.251451C0.778468 0.450865 0.235109 0.920073 0.0667441 1.51245C0.00552052 1.72359 -0.00978537 5.67667 0.00552053 15.3306L0.0284794 28.8497L0.189191 29.1195C0.426433 29.5066 0.786121 29.7881 1.27591 29.9758L1.71213 30.14H13.9951H26.2781L26.7143 29.9758C27.2041 29.7881 27.5638 29.5066 27.801 29.1195L27.9617 28.8497L27.9847 18.2163L28 7.5887H23.6302H19.2603L18.9542 7.45966C18.7705 7.37755 18.5869 7.23679 18.5027 7.10776C18.3649 6.90248 18.3573 6.71479 18.3573 3.51245V0.140015H10.1533C2.46977 0.14588 1.91876 0.151745 1.54376 0.251451ZM8.71457 3.5887C9.02834 3.706 9.32681 4.02858 9.32681 4.24559C9.32681 4.38048 9.38803 4.42154 9.74007 4.53298C9.96966 4.60336 10.314 4.76758 10.5054 4.89661C11.7145 5.71186 10.4671 6.96113 9.12783 6.28078C8.81406 6.12242 8.68396 6.09309 8.31662 6.09309C7.9952 6.09896 7.84214 6.12828 7.71969 6.2104C7.51306 6.35116 7.39827 6.57403 7.45184 6.70893C7.50541 6.83796 8.17887 7.11362 9.08191 7.37755C10.0232 7.65321 10.2069 7.73532 10.6508 8.04617C12.189 9.15468 11.7298 11.2309 9.76303 12.0168C9.35742 12.1811 9.32681 12.2045 9.32681 12.4039C9.32681 13.0139 8.33958 13.4186 7.64316 13.096C7.30643 12.9318 7.20694 12.838 7.0845 12.5212C6.99266 12.2925 6.93909 12.2515 6.67889 12.1928C6.21971 12.0872 5.48503 11.7822 5.24779 11.6063C4.67382 11.1605 4.90341 10.3981 5.67635 10.1752C6.02074 10.0755 6.19675 10.099 6.77073 10.3101C7.37531 10.5388 7.81918 10.6092 8.30131 10.5506C8.99773 10.4743 9.45691 9.9406 9.21967 9.50072C9.09722 9.27198 9.01304 9.23092 8.24009 9.01978C7.42888 8.79691 6.40338 8.38048 5.99778 8.10482C5.11769 7.51245 4.90341 6.4274 5.50034 5.53591C5.70697 5.21919 6.3039 4.76171 6.70185 4.60336C6.96205 4.50365 7.01562 4.45086 7.06154 4.25145C7.18398 3.66494 8.03346 3.32477 8.71457 3.5887ZM22.4899 15.3306C22.8343 15.4655 23.1021 15.7998 23.1021 16.0931C23.1021 16.3863 22.8343 16.7207 22.4899 16.8556C22.1914 16.9729 22.0537 16.9729 13.9875 16.9729H5.79115L5.48503 16.8438C4.71208 16.5095 4.70443 15.706 5.46972 15.3541L5.76819 15.2133H13.9798C22.0613 15.2133 22.1914 15.2133 22.4899 15.3306ZM22.4899 19.0843C22.8343 19.2192 23.1021 19.5535 23.1021 19.8468C23.1021 20.14 22.8343 20.4743 22.4899 20.6092C22.1914 20.7265 22.0537 20.7265 13.9875 20.7265H5.79115L5.48503 20.5975C4.71208 20.2632 4.70443 19.4597 5.46972 19.1078L5.76819 18.967H13.9798C22.0613 18.967 22.1914 18.967 22.4899 19.0843ZM22.4899 24.7148C22.8343 24.8497 23.1021 25.184 23.1021 25.4773C23.1021 25.7705 22.8343 26.1048 22.4899 26.2397C22.2067 26.3512 22.046 26.357 19.8037 26.357C17.4772 26.357 17.416 26.3512 17.1175 26.228C16.3446 25.8937 16.3369 25.0902 17.1022 24.7383C17.4007 24.5975 17.416 24.5975 19.796 24.5975C22.046 24.5975 22.2067 24.6034 22.4899 24.7148Z" fill="white"/>
</svg>
