<svg width="45" height="49" viewBox="0 0 45 49" fill="none" xmlns="http://www.w3.org/2000/svg">
<path d="M2.48105 0.179224C1.25111 0.49971 0.377854 1.25379 0.107267 2.20583C0.00887227 2.54516 -0.0157265 8.89833 0.00887227 24.4136L0.0457704 46.1407L0.304057 46.5743C0.685338 47.1964 1.26341 47.6489 2.05057 47.9505L2.75163 48.2144H22.4921H42.2326L42.9337 47.9505C43.7209 47.6489 44.2989 47.1964 44.6802 46.5743L44.9385 46.1407L44.9754 29.0512L45 11.9712H37.9771H30.9541L30.4621 11.7638C30.1669 11.6319 29.8718 11.4057 29.7365 11.1983C29.5151 10.8684 29.5028 10.5667 29.5028 5.42011V0.000128453H16.3178C3.96927 0.00955451 3.08372 0.0189806 2.48105 0.179224ZM14.0056 5.54265C14.5098 5.73117 14.9895 6.24961 14.9895 6.59837C14.9895 6.81517 15.0879 6.88115 15.6537 7.06025C16.0227 7.17336 16.5761 7.43729 16.8836 7.64466C18.8269 8.95488 16.8221 10.9626 14.6697 9.86921C14.1655 9.61471 13.9564 9.56758 13.366 9.56758C12.8494 9.577 12.6034 9.62413 12.4066 9.7561C12.0746 9.98232 11.8901 10.3405 11.9762 10.5573C12.0623 10.7647 13.1446 11.2077 14.5959 11.6319C16.1088 12.0749 16.4039 12.2069 17.1173 12.7065C19.5895 14.488 18.8515 17.8248 15.6906 19.0879C15.0387 19.3518 14.9895 19.3895 14.9895 19.71C14.9895 20.6903 13.4029 21.3407 12.2837 20.8223C11.7425 20.5584 11.5826 20.4075 11.3858 19.8985C11.2382 19.5309 11.1521 19.4649 10.7339 19.3707C9.99597 19.201 8.81523 18.7109 8.43395 18.4281C7.51149 17.7117 7.88047 16.4863 9.12271 16.1281C9.67618 15.9679 9.95907 16.0056 10.8815 16.3449C11.8532 16.7125 12.5665 16.8256 13.3414 16.7314C14.4606 16.6088 15.1986 15.7511 14.8173 15.0441C14.6205 14.6765 14.4852 14.6105 13.243 14.2712C11.9393 13.913 10.2912 13.2437 9.63929 12.8007C8.22486 11.8487 7.88047 10.1049 8.83983 8.6721C9.17191 8.16309 10.1313 7.42786 10.7708 7.17336C11.189 7.01312 11.2751 6.92828 11.3489 6.6078C11.5457 5.66519 12.9109 5.11848 14.0056 5.54265ZM36.1444 24.4136C36.6979 24.6304 37.1284 25.1677 37.1284 25.639C37.1284 26.1103 36.6979 26.6476 36.1444 26.8644C35.6648 27.0529 35.4434 27.0529 22.4798 27.0529H9.3072L8.81523 26.8455C7.57299 26.3083 7.56069 25.0169 8.79063 24.4513L9.2703 24.2251H22.4675C35.4557 24.2251 35.6648 24.2251 36.1444 24.4136ZM36.1444 30.4463C36.6979 30.6631 37.1284 31.2004 37.1284 31.6717C37.1284 32.143 36.6979 32.6803 36.1444 32.8971C35.6648 33.0856 35.4434 33.0856 22.4798 33.0856H9.3072L8.81523 32.8782C7.57299 32.3409 7.56069 31.0496 8.79063 30.484L9.2703 30.2578H22.4675C35.4557 30.2578 35.6648 30.2578 36.1444 30.4463ZM36.1444 39.4953C36.6979 39.7121 37.1284 40.2494 37.1284 40.7207C37.1284 41.192 36.6979 41.7293 36.1444 41.9461C35.6894 42.1252 35.4311 42.1346 31.8274 42.1346C28.0884 42.1346 27.99 42.1252 27.5103 41.9272C26.268 41.39 26.2557 40.0986 27.4857 39.533C27.9654 39.3068 27.99 39.3068 31.8151 39.3068C35.4311 39.3068 35.6894 39.3162 36.1444 39.4953Z" fill="#FA7070"/>
<path d="M33.1927 5.04291V9.14325H38.5675H43.9546L38.6044 5.04291C35.6649 2.79009 33.2419 0.94258 33.2296 0.94258C33.205 0.94258 33.1927 2.79009 33.1927 5.04291Z" fill="#FA7070"/>
</svg>
