<svg width="24" height="26" viewBox="0 0 24 26" fill="none" xmlns="http://www.w3.org/2000/svg">
<path d="M1.32323 0.235602C0.667258 0.406528 0.201522 0.808706 0.0572092 1.31646C0.00473188 1.49744 -0.00838746 4.88579 0.00473188 13.1606L0.0244109 24.7484L0.162164 24.9796C0.365514 25.3114 0.673818 25.5527 1.09364 25.7136L1.46754 25.8544H11.9958H22.5241L22.898 25.7136C23.3178 25.5527 23.6261 25.3114 23.8294 24.9796L23.9672 24.7484L23.9869 15.634L24 6.52467H20.2544H16.5089L16.2465 6.41407C16.089 6.34369 15.9316 6.22303 15.8595 6.11243C15.7414 5.93648 15.7348 5.77561 15.7348 3.03074V0.140084H8.70285C2.11694 0.145112 1.64465 0.150139 1.32323 0.235602ZM7.46963 3.0961C7.73858 3.19664 7.99441 3.47314 7.99441 3.65915C7.99441 3.77477 8.04689 3.80996 8.34863 3.90548C8.54542 3.96581 8.84061 4.10657 9.0046 4.21717C10.041 4.91595 8.9718 5.98675 7.82386 5.4036C7.55491 5.26786 7.4434 5.24272 7.12853 5.24272C6.85303 5.24775 6.72183 5.27289 6.61688 5.34327C6.43977 5.46392 6.34137 5.65496 6.38729 5.77058C6.43321 5.88118 7.01046 6.11746 7.7845 6.34369C8.59134 6.57997 8.74877 6.65035 9.12923 6.91679C10.4477 7.86694 10.0541 9.64658 8.36831 10.3202C8.02065 10.461 7.99441 10.4811 7.99441 10.652C7.99441 11.1749 7.14821 11.5217 6.55128 11.2452C6.26266 11.1045 6.17738 11.024 6.07243 10.7526C5.99371 10.5565 5.94779 10.5213 5.72476 10.471C5.33118 10.3806 4.70145 10.1191 4.4981 9.96832C4.00613 9.58625 4.20292 8.93271 4.86545 8.74168C5.16063 8.65621 5.3115 8.67632 5.80348 8.8573C6.32169 9.05336 6.70215 9.11369 7.11541 9.06342C7.71234 8.99807 8.10592 8.54059 7.90257 8.16354C7.79762 7.96748 7.72546 7.93229 7.06293 7.75131C6.36761 7.56028 5.48861 7.20334 5.14095 6.96706C4.38659 6.45931 4.20292 5.52928 4.71457 4.76514C4.89169 4.49367 5.40334 4.10154 5.74444 3.96581C5.96747 3.88034 6.01339 3.8351 6.05275 3.66417C6.1577 3.16145 6.88582 2.86987 7.46963 3.0961ZM19.277 13.1606C19.5722 13.2762 19.8018 13.5628 19.8018 13.8142C19.8018 14.0655 19.5722 14.3521 19.277 14.4677C19.0212 14.5682 18.9031 14.5682 11.9892 14.5682H4.96384L4.70145 14.4576C4.03893 14.1711 4.03237 13.4824 4.68834 13.1807L4.94416 13.0601H11.9827C18.9097 13.0601 19.0212 13.0601 19.277 13.1606ZM19.277 16.378C19.5722 16.4937 19.8018 16.7802 19.8018 17.0316C19.8018 17.2829 19.5722 17.5695 19.277 17.6851C19.0212 17.7857 18.9031 17.7857 11.9892 17.7857H4.96384L4.70145 17.6751C4.03893 17.3885 4.03237 16.6998 4.68834 16.3981L4.94416 16.2775H11.9827C18.9097 16.2775 19.0212 16.2775 19.277 16.378ZM19.277 21.2042C19.5722 21.3198 19.8018 21.6064 19.8018 21.8577C19.8018 22.1091 19.5722 22.3956 19.277 22.5113C19.0343 22.6068 18.8966 22.6118 16.9746 22.6118C14.9805 22.6118 14.928 22.6068 14.6722 22.5012C14.0096 22.2147 14.0031 21.5259 14.659 21.2243C14.9149 21.1036 14.928 21.1036 16.968 21.1036C18.8966 21.1036 19.0343 21.1087 19.277 21.2042Z" fill="white"/>
<path d="M17.7028 2.82951V5.01636H20.5693H23.4425L20.589 2.82951C19.0213 1.628 17.729 0.642667 17.7224 0.642667C17.7093 0.642667 17.7028 1.628 17.7028 2.82951Z" fill="white"/>
</svg>
