<svg width="29" height="24" viewBox="0 0 29 24" fill="none" xmlns="http://www.w3.org/2000/svg">
<path d="M28.2161 5.55937L25.1739 0.703125C24.902 0.267187 24.4192 0 23.9036 0H4.96611C4.45049 0 3.96767 0.267187 3.6958 0.703125L0.653612 5.55937C-0.916701 8.06719 0.475487 11.5547 3.40986 11.9531C3.6208 11.9812 3.83642 11.9953 4.05205 11.9953C5.43955 11.9953 6.66767 11.3859 7.51142 10.4438C8.35517 11.3859 9.58799 11.9953 10.9708 11.9953C12.3583 11.9953 13.5864 11.3859 14.4302 10.4438C15.2739 11.3859 16.5067 11.9953 17.8895 11.9953C19.2771 11.9953 20.5052 11.3859 21.3489 10.4438C22.1974 11.3859 23.4255 11.9953 24.8083 11.9953C25.0286 11.9953 25.2395 11.9812 25.4505 11.9531C28.3942 11.5594 29.7911 8.07187 28.2161 5.55937ZM24.8177 13.5C24.3489 13.5 23.8849 13.4297 23.4349 13.3219V18H5.43486V13.3219C4.98486 13.425 4.5208 13.5 4.05205 13.5C3.7708 13.5 3.48486 13.4812 3.2083 13.4437C2.9458 13.4062 2.68799 13.3453 2.43955 13.275V22.5C2.43955 23.3297 3.10986 24 3.93955 24H24.9395C25.7692 24 26.4395 23.3297 26.4395 22.5V13.275C26.1864 13.35 25.9333 13.4109 25.6708 13.4437C25.3849 13.4812 25.1036 13.5 24.8177 13.5Z" fill="white"/>
</svg>
