<svg width="55" height="46" viewBox="0 0 55 46" fill="none" xmlns="http://www.w3.org/2000/svg">
<path d="M53.7514 10.5905L47.956 1.33945C47.4381 0.508989 46.5184 0 45.5361 0H9.46039C8.47813 0 7.55838 0.508989 7.04046 1.33945L1.24512 10.5905C-1.74631 15.3679 0.905797 22.0116 6.49575 22.7706C6.89758 22.8242 7.30835 22.8509 7.71911 22.8509C10.3623 22.8509 12.7018 21.6901 14.3092 19.8952C15.9165 21.6901 18.265 22.8509 20.8993 22.8509C23.5424 22.8509 25.882 21.6901 27.4893 19.8952C29.0967 21.6901 31.4452 22.8509 34.0794 22.8509C36.7226 22.8509 39.0621 21.6901 40.6695 19.8952C42.2857 21.6901 44.6253 22.8509 47.2595 22.8509C47.6792 22.8509 48.0811 22.8242 48.4829 22.7706C54.0907 22.0205 56.7517 15.3768 53.7514 10.5905ZM47.2774 25.7174C46.3844 25.7174 45.5004 25.5834 44.6432 25.378V34.2898H10.3534V25.378C9.49611 25.5745 8.61207 25.7174 7.71911 25.7174C7.18333 25.7174 6.63862 25.6816 6.11177 25.6102C5.61171 25.5388 5.12058 25.4227 4.64731 25.2887V42.8623C4.64731 44.4428 5.92425 45.7197 7.5048 45.7197H47.5096C49.0901 45.7197 50.3671 44.4428 50.3671 42.8623V25.2887C49.8849 25.4316 49.4027 25.5477 48.9026 25.6102C48.3579 25.6816 47.8221 25.7174 47.2774 25.7174Z" fill="#FA7070"/>
</svg>
