<svg width="29" height="23" viewBox="0 0 29 23" fill="none" xmlns="http://www.w3.org/2000/svg">
<path d="M17.0723 1.38224C17.0723 0.601104 18.0212 0.205502 18.5785 0.758147C18.5787 0.758347 18.5789 0.758547 18.5791 0.758747L28.2432 10.4228C28.2435 10.4231 28.2438 10.4235 28.2441 10.4238C28.5853 10.7696 28.5853 11.3292 28.2441 11.675C28.2438 11.6753 28.2435 11.6756 28.2432 11.676L18.5779 21.3412C18.0258 21.8933 17.0723 21.5026 17.0723 20.7165V15.1925V14.6925H16.5723H8.74647C8.25729 14.6925 7.86544 14.3006 7.86544 13.8114V8.28735C7.86544 7.79818 8.25729 7.40633 8.74647 7.40633H16.5723H17.0723V6.90633V1.38224ZM10.5482 19.1053V21.407C10.5482 21.5107 10.4613 21.5976 10.3577 21.5976H5.52408C2.75047 21.5976 0.5 19.3471 0.5 16.5735V5.52531C0.5 2.7517 2.75047 0.501224 5.52408 0.501224H10.3577C10.4613 0.501224 10.5482 0.588096 10.5482 0.691734V2.99344C10.5482 3.09707 10.4613 3.18395 10.3577 3.18395H5.52408C4.22944 3.18395 3.18272 4.23066 3.18272 5.52531V16.5735C3.18272 17.8681 4.22944 18.9148 5.52408 18.9148H10.3577C10.4613 18.9148 10.5482 19.0017 10.5482 19.1053Z" stroke="white"/>
</svg>
