<svg width="50" height="41" viewBox="0 0 50 41" fill="none" xmlns="http://www.w3.org/2000/svg">
<path d="M41.9903 40.4701H48.9988C49.5784 40.4701 50 39.9959 50 39.4689V19.2339C50 18.6542 49.5257 18.2327 48.9988 18.2327H41.9903C41.4106 18.2327 40.9891 18.7069 40.9891 19.2339V39.4689C40.9891 39.9959 41.4633 40.4701 41.9903 40.4701ZM43.0442 20.2351H47.9976V38.415H43.0442V20.2351ZM19.542 40.4701H26.5505C27.1302 40.4701 27.5518 39.9959 27.5518 39.4689V24.6088C27.5518 24.0292 27.0775 23.6076 26.5505 23.6076H19.542C18.9624 23.6076 18.5408 24.0819 18.5408 24.6088V39.4689C18.5408 39.9959 18.9624 40.4701 19.542 40.4701ZM25.5493 25.61V27.1909L23.9685 25.61H25.5493ZM22.3349 25.61L25.5493 28.8244V30.458L20.7013 25.61H22.3349ZM20.596 27.0855L25.5493 32.0389V33.6724L20.596 28.7191V27.0855ZM20.596 30.3526L25.5493 35.306V36.9395L20.596 31.9862V30.3526ZM20.596 33.567L25.4439 38.415H23.8104L20.596 35.2006V33.567ZM20.596 36.8341L22.1768 38.415H20.596V36.8341ZM10.2677 7.74628C6.78976 7.69359 7.31671 3.05639 7.31671 3.05639C7.4748 -0.0526393 10.0569 5.66479e-05 10.3203 5.66479e-05C10.5838 5.66479e-05 13.1659 -0.0526393 13.324 3.05639C13.2713 3.05639 13.7982 7.69359 10.2677 7.74628C10.3203 7.74628 10.3203 7.74628 10.2677 7.74628ZM6.21011 40.4701C6.84245 40.5755 7.4221 40.154 7.52749 39.5216L9.89879 26.7693L11.1635 39.4162C11.2162 39.9959 11.6904 40.4701 12.3228 40.4701C12.9551 40.4701 13.4821 39.9959 13.5348 39.3635L14.2725 21.289L14.8522 15.3871C14.8522 15.2817 15.0102 15.229 15.0629 15.3344L16.5384 17.4422C16.8019 17.8111 17.1708 18.0219 17.5923 18.1273L24.6535 19.4974C25.3912 19.6554 26.0763 19.0758 26.0763 18.3381C26.0763 17.8111 25.7074 17.3368 25.2332 17.2315L19.1732 15.4925L16.3276 11.0134C16.2749 10.9607 16.2749 10.908 16.2222 10.908C15.9061 10.5918 15.748 10.4337 15.4318 10.223C14.1671 9.27445 12.5863 8.6421 12.5863 8.6421L11.3216 12.3835L10.6365 10.3811C11.9012 8.6421 10.4784 8.58941 10.3203 8.58941C10.1096 8.58941 8.73949 8.6421 10.0042 10.3811L9.31914 12.3835L8.10714 8.58941C8.10714 8.58941 6.73706 9.16906 5.52507 10.0122C5.36698 10.1176 5.20889 10.2757 5.05081 10.3811L0.571697 15.229C-0.271429 16.1249 -0.166038 17.5476 0.782479 18.3381L6.15741 22.9226L5.26159 39.2581C5.20889 39.8378 5.63046 40.3647 6.21011 40.4701ZM3.41725 16.8626L5.63046 14.8602L6.10472 19.6554L3.41725 16.8626ZM29.765 39.4689V16.5991C31.3458 15.4398 32.3997 13.5955 32.3997 11.435C32.3997 10.908 32.347 10.4337 32.2416 9.95949H37.8274C38.407 9.95949 38.8286 10.4337 38.8286 10.9607V39.4162C38.8286 39.9959 38.3543 40.4174 37.8274 40.4174H30.7662C30.2392 40.4701 29.765 39.9959 29.765 39.4689ZM30.2919 11.435C30.2919 9.11636 28.3949 7.16663 26.0236 7.16663C23.6523 7.16663 21.7553 9.06367 21.7553 11.435C21.7553 13.7536 23.6523 15.7033 26.0236 15.7033C28.3949 15.7033 30.2919 13.8063 30.2919 11.435ZM27.2883 13.1212C27.0775 13.332 26.8667 13.4901 26.6032 13.5955C26.4978 13.6482 26.4451 13.7009 26.4451 13.8063C26.4451 13.9116 26.4451 14.0697 26.4451 14.1751C26.4451 14.2805 26.3925 14.3332 26.2871 14.3332C26.129 14.3332 26.0236 14.3332 25.8655 14.3332C25.7601 14.3332 25.7074 14.2805 25.7074 14.1224C25.7074 14.017 25.7074 13.9643 25.7074 13.8589C25.7074 13.6482 25.7074 13.6482 25.4966 13.5955C25.2332 13.5428 25.0224 13.4901 24.7589 13.3847C24.6008 13.2793 24.5481 13.2793 24.6008 13.0685C24.6535 12.9104 24.6535 12.805 24.7062 12.647C24.7589 12.4889 24.8116 12.4889 24.9697 12.5416C25.2332 12.647 25.4966 12.7523 25.7601 12.805C25.9182 12.805 26.129 12.805 26.2871 12.7523C26.6032 12.5943 26.6559 12.2781 26.3925 12.0146C26.2871 11.9619 26.1817 11.9092 26.0763 11.8565C25.8128 11.7511 25.4966 11.6457 25.2332 11.4877C24.8116 11.2242 24.5481 10.908 24.6008 10.3811C24.6535 9.8014 24.9697 9.43254 25.4966 9.27445C25.7074 9.16906 25.7074 9.22175 25.7074 8.95828C25.7074 8.90558 25.7074 8.80019 25.7074 8.74749C25.7074 8.58941 25.7601 8.53671 25.9182 8.53671C25.9709 8.53671 26.0236 8.53671 26.0763 8.53671C26.4451 8.53671 26.4451 8.53671 26.4451 8.90558C26.4451 9.16906 26.4451 9.16906 26.7086 9.22175C26.9194 9.27445 27.0775 9.32714 27.2883 9.37984C27.3937 9.43253 27.4464 9.48523 27.3937 9.59062C27.341 9.74871 27.2883 9.90679 27.2356 10.0649C27.1829 10.223 27.1302 10.223 26.9721 10.1703C26.7086 10.0122 26.3925 9.95949 26.0763 10.0122C25.9709 10.0122 25.9182 10.0122 25.8128 10.0649C25.5493 10.1703 25.4966 10.4864 25.7074 10.6445C25.8128 10.7499 25.9709 10.8026 26.0763 10.8553C26.3398 10.9607 26.5505 11.0661 26.814 11.1715C27.6044 11.593 27.7625 12.4889 27.2883 13.1212Z" fill="#41C9E2"/>
</svg>
