<svg xmlns="http://www.w3.org/2000/svg" version="1.1" xmlns:xlink="http://www.w3.org/1999/xlink" xmlns:svgjs="http://svgjs.dev/svgjs" width="2000" height="727" viewBox="0 0 2000 727"><g transform="matrix(1,0,0,1,-1.2121212121212466,0.5063940784816623)"><svg viewBox="0 0 396 144" data-background-color="#ffffff" preserveAspectRatio="xMidYMid meet" height="727" width="2000" xmlns="http://www.w3.org/2000/svg" xmlns:xlink="http://www.w3.org/1999/xlink"><g id="tight-bounds" transform="matrix(1,0,0,1,0.2400000000000091,-0.10030364140489212)"><svg viewBox="0 0 395.52 144.20060728280978" height="144.20060728280978" width="395.52"><g><svg viewBox="0 0 397.4975999999999 144.92161031922382" height="144.20060728280978" width="395.52"><g><rect width="397.4975999999999" height="4.438757516778575" x="0" y="79.64254620327488" fill="#067627" opacity="1" stroke-width="0" stroke="transparent" fill-opacity="1" class="rect-qz-0" data-fill-palette-color="secondary" rx="1%" id="qz-0" data-palette-color="#067627"></rect></g><g transform="matrix(1,0,0,1,0.9887999999999693,95.70108779539004)"><svg viewBox="0 0 395.52 49.22052252383378" height="49.22052252383378" width="395.52"><g id="textblocktransform"><svg viewBox="0 0 395.52 49.22052252383378" height="49.22052252383378" width="395.52" id="textblock"><g><svg viewBox="0 0 395.52 49.22052252383378" height="49.22052252383378" width="395.52"><g transform="matrix(1,0,0,1,0,0)"><svg width="395.52" viewBox="1.66 -41.19 335.45 41.75" height="49.22052252383378" data-palette-color="#008dda"><path d="M27.71-9.01L27.71-9.01Q27.71-7.15 27.17-5.71 26.64-4.27 25.71-3.21 24.78-2.15 23.51-1.43 22.24-0.71 20.79-0.27 19.34 0.17 17.75 0.37 16.16 0.56 14.6 0.56L14.6 0.56Q12.5 0.56 10.89 0.29 9.28 0.02 7.81-0.57 6.35-1.17 4.9-2.12 3.44-3.08 1.66-4.44L1.66-4.44 6.47-8.37Q7.13-7.13 8.22-6.12 9.3-5.1 10.47-4.37 11.65-3.64 12.74-3.25 13.84-2.86 14.53-2.86L14.53-2.86Q15.09-2.86 15.8-2.89 16.5-2.93 17.24-3.04 17.97-3.15 18.68-3.37 19.38-3.59 19.93-3.97 20.48-4.35 20.81-4.92 21.14-5.49 21.14-6.3L21.14-6.3Q21.14-7.13 20.72-7.75 20.29-8.37 19.6-8.84 18.92-9.3 18.04-9.62 17.16-9.94 16.27-10.18 15.38-10.42 14.55-10.61 13.72-10.79 13.11-10.96L13.11-10.96Q11.99-11.28 10.74-11.61 9.5-11.94 8.28-12.37 7.06-12.79 5.94-13.38 4.83-13.96 3.99-14.78 3.15-15.6 2.65-16.71 2.15-17.82 2.15-19.31L2.15-19.31Q2.15-22.05 3.23-23.89 4.32-25.73 6.1-26.84 7.89-27.95 10.16-28.42 12.43-28.88 14.77-28.88L14.77-28.88Q16.38-28.88 18.16-28.55 19.95-28.22 21.63-27.58 23.32-26.93 24.78-26 26.25-25.07 27.22-23.88L27.22-23.88 22.41-19.92Q21.88-21.39 21.01-22.44 20.14-23.49 19.13-24.16 18.12-24.83 17.05-25.15 15.99-25.46 15.09-25.46L15.09-25.46Q14.21-25.46 13.11-25.39 12.01-25.32 11.05-24.98 10.08-24.63 9.41-23.94 8.74-23.24 8.74-22.02L8.74-22.02Q8.74-21.14 9.14-20.52 9.55-19.9 10.21-19.45 10.86-18.99 11.71-18.69 12.55-18.38 13.43-18.15 14.31-17.92 15.14-17.75 15.97-17.58 16.63-17.38L16.63-17.38Q17.75-17.07 19.01-16.74 20.26-16.41 21.48-15.98 22.71-15.55 23.84-14.98 24.98-14.4 25.83-13.57 26.68-12.74 27.2-11.63 27.71-10.52 27.71-9.01ZM61.3-28.2L61.3 0 53.05 0 53.05-3.37Q51.58-1.37 49.52-0.4 47.46 0.56 44.99 0.56L44.99 0.56Q41.77 0.56 39.23-0.59 36.69-1.73 34.93-3.72 33.18-5.71 32.25-8.4 31.32-11.08 31.32-14.16L31.32-14.16Q31.32-17.24 32.25-19.92 33.18-22.61 34.93-24.6 36.69-26.59 39.23-27.73 41.77-28.88 44.99-28.88L44.99-28.88Q46.63-28.88 48.11-28.39 49.58-27.91 50.82-27.01 52.05-26.12 52.99-24.87 53.93-23.61 54.47-22.07L54.47-22.07 58.13-28.2 61.3-28.2ZM53-14.16L53-14.16Q53-15.26 52.89-16.48 52.78-17.7 52.51-18.9 52.24-20.09 51.77-21.18 51.29-22.27 50.55-23.11 49.8-23.95 48.75-24.44 47.7-24.93 46.31-24.93L46.31-24.93Q44.92-24.93 43.89-24.43 42.87-23.93 42.14-23.08 41.4-22.24 40.93-21.14 40.45-20.04 40.18-18.85 39.91-17.65 39.8-16.44 39.69-15.23 39.69-14.16L39.69-14.16Q39.69-13.09 39.8-11.87 39.91-10.64 40.18-9.45 40.45-8.25 40.93-7.15 41.4-6.05 42.14-5.21 42.87-4.37 43.89-3.87 44.92-3.37 46.31-3.37L46.31-3.37Q47.58-3.37 48.57-3.89 49.56-4.42 50.3-5.3 51.05-6.18 51.56-7.3 52.07-8.42 52.39-9.62 52.71-10.82 52.85-12 53-13.18 53-14.16ZM76.44-32.62L76.44 0 68.18 0 68.18-41.19 71.36-41.19 76.44-32.62ZM90.1-13.38L90.1-13.38Q91.62-13.04 93.13-12.84 94.65-12.65 96.18-12.65L96.18-12.65Q97.8-12.65 99.17-12.95 100.55-13.26 101.57-13.98 102.58-14.7 103.17-15.89 103.75-17.09 103.75-18.87L103.75-18.87Q103.75-20.31 103.36-21.51 102.97-22.71 102.2-23.56 101.43-24.41 100.31-24.89 99.19-25.37 97.7-25.37L97.7-25.37Q96.31-25.37 95.2-24.85 94.08-24.34 93.24-23.47 92.4-22.61 91.8-21.46 91.2-20.31 90.81-19.07 90.42-17.82 90.25-16.55 90.08-15.28 90.08-14.16L90.08-14.16Q90.08-13.96 90.08-13.77 90.08-13.57 90.1-13.38ZM110.44-18.95L110.44-18.95Q110.44-17.21 109.88-15.86 109.32-14.5 108.35-13.48 107.39-12.45 106.12-11.74 104.85-11.04 103.41-10.58 101.97-10.13 100.44-9.94 98.92-9.74 97.48-9.74L97.48-9.74Q95.65-9.74 93.86-10 92.08-10.25 90.35-10.82L90.35-10.82Q90.62-9.2 91.2-7.75 91.79-6.3 92.77-5.21 93.74-4.13 95.17-3.49 96.6-2.86 98.55-2.86L98.55-2.86Q99.85-2.86 101.02-3.25 102.19-3.64 103.17-4.35 104.14-5.05 104.89-6.03 105.63-7.01 106.1-8.2L106.1-8.2 109.66-6.88Q108.85-4.96 107.45-3.55 106.05-2.15 104.28-1.23 102.51-0.32 100.52 0.12 98.53 0.56 96.57 0.56L96.57 0.56Q93.35 0.56 90.62-0.52 87.88-1.61 85.91-3.56 83.93-5.52 82.81-8.23 81.68-10.94 81.68-14.16L81.68-14.16Q81.68-17.38 82.81-20.09 83.93-22.8 85.91-24.76 87.88-26.71 90.62-27.8 93.35-28.88 96.57-28.88L96.57-28.88Q98.14-28.88 99.77-28.66 101.41-28.44 102.95-27.97 104.48-27.49 105.85-26.73 107.22-25.98 108.23-24.87 109.25-23.75 109.84-22.29 110.44-20.83 110.44-18.95ZM139.86-9.01L139.86-9.01Q139.86-7.15 139.32-5.71 138.78-4.27 137.86-3.21 136.93-2.15 135.66-1.43 134.39-0.71 132.94-0.27 131.48 0.17 129.9 0.37 128.31 0.56 126.75 0.56L126.75 0.56Q124.65 0.56 123.04 0.29 121.43 0.02 119.96-0.57 118.5-1.17 117.04-2.12 115.59-3.08 113.81-4.44L113.81-4.44 118.62-8.37Q119.28-7.13 120.36-6.12 121.45-5.1 122.62-4.37 123.79-3.64 124.89-3.25 125.99-2.86 126.67-2.86L126.67-2.86Q127.24-2.86 127.94-2.89 128.65-2.93 129.38-3.04 130.12-3.15 130.82-3.37 131.53-3.59 132.08-3.97 132.63-4.35 132.96-4.92 133.29-5.49 133.29-6.3L133.29-6.3Q133.29-7.13 132.86-7.75 132.44-8.37 131.75-8.84 131.07-9.3 130.19-9.62 129.31-9.94 128.42-10.18 127.53-10.42 126.7-10.61 125.87-10.79 125.26-10.96L125.26-10.96Q124.14-11.28 122.89-11.61 121.65-11.94 120.42-12.37 119.2-12.79 118.09-13.38 116.98-13.96 116.14-14.78 115.3-15.6 114.8-16.71 114.3-17.82 114.3-19.31L114.3-19.31Q114.3-22.05 115.38-23.89 116.47-25.73 118.25-26.84 120.03-27.95 122.3-28.42 124.57-28.88 126.92-28.88L126.92-28.88Q128.53-28.88 130.31-28.55 132.09-28.22 133.78-27.58 135.46-26.93 136.93-26 138.39-25.07 139.37-23.88L139.37-23.88 134.56-19.92Q134.02-21.39 133.16-22.44 132.29-23.49 131.28-24.16 130.26-24.83 129.2-25.15 128.14-25.46 127.24-25.46L127.24-25.46Q126.36-25.46 125.26-25.39 124.16-25.32 123.2-24.98 122.23-24.63 121.56-23.94 120.89-23.24 120.89-22.02L120.89-22.02Q120.89-21.14 121.29-20.52 121.69-19.9 122.35-19.45 123.01-18.99 123.85-18.69 124.7-18.38 125.58-18.15 126.45-17.92 127.28-17.75 128.12-17.58 128.77-17.38L128.77-17.38Q129.9-17.07 131.15-16.74 132.41-16.41 133.63-15.98 134.85-15.55 135.99-14.98 137.12-14.4 137.98-13.57 138.83-12.74 139.35-11.63 139.86-10.52 139.86-9.01ZM160.63 0L152.6-26.22 149.87 0 143.88 0 149.87-35.16 158.73-35.16 166.96-8.33 175.28-35.16 184.14-35.16 189.12 0 179.26 0 176.35-25.54 169.49 0 160.63 0ZM222.76-28.2L222.76 0 214.51 0 214.51-3.37Q213.05-1.37 210.98-0.4 208.92 0.56 206.45 0.56L206.45 0.56Q203.23 0.56 200.69-0.59 198.15-1.73 196.4-3.72 194.64-5.71 193.71-8.4 192.78-11.08 192.78-14.16L192.78-14.16Q192.78-17.24 193.71-19.92 194.64-22.61 196.4-24.6 198.15-26.59 200.69-27.73 203.23-28.88 206.45-28.88L206.45-28.88Q208.09-28.88 209.57-28.39 211.04-27.91 212.28-27.01 213.51-26.12 214.45-24.87 215.39-23.61 215.93-22.07L215.93-22.07 219.59-28.2 222.76-28.2ZM214.46-14.16L214.46-14.16Q214.46-15.26 214.35-16.48 214.24-17.7 213.97-18.9 213.71-20.09 213.23-21.18 212.75-22.27 212.01-23.11 211.26-23.95 210.21-24.44 209.16-24.93 207.77-24.93L207.77-24.93Q206.38-24.93 205.36-24.43 204.33-23.93 203.6-23.08 202.87-22.24 202.39-21.14 201.91-20.04 201.65-18.85 201.38-17.65 201.27-16.44 201.16-15.23 201.16-14.16L201.16-14.16Q201.16-13.09 201.27-11.87 201.38-10.64 201.65-9.45 201.91-8.25 202.39-7.15 202.87-6.05 203.6-5.21 204.33-4.37 205.36-3.87 206.38-3.37 207.77-3.37L207.77-3.37Q209.04-3.37 210.03-3.89 211.02-4.42 211.76-5.3 212.51-6.18 213.02-7.3 213.53-8.42 213.85-9.62 214.17-10.82 214.32-12 214.46-13.18 214.46-14.16ZM253.91-9.01L253.91-9.01Q253.91-7.15 253.38-5.71 252.84-4.27 251.91-3.21 250.98-2.15 249.71-1.43 248.44-0.71 246.99-0.27 245.54 0.17 243.95 0.37 242.37 0.56 240.8 0.56L240.8 0.56Q238.7 0.56 237.09 0.29 235.48 0.02 234.02-0.57 232.55-1.17 231.1-2.12 229.65-3.08 227.86-4.44L227.86-4.44 232.67-8.37Q233.33-7.13 234.42-6.12 235.5-5.1 236.68-4.37 237.85-3.64 238.95-3.25 240.05-2.86 240.73-2.86L240.73-2.86Q241.29-2.86 242-2.89 242.71-2.93 243.44-3.04 244.17-3.15 244.88-3.37 245.59-3.59 246.14-3.97 246.69-4.35 247.02-4.92 247.35-5.49 247.35-6.3L247.35-6.3Q247.35-7.13 246.92-7.75 246.49-8.37 245.81-8.84 245.12-9.3 244.25-9.62 243.37-9.94 242.48-10.18 241.58-10.42 240.75-10.61 239.92-10.79 239.31-10.96L239.31-10.96Q238.19-11.28 236.95-11.61 235.7-11.94 234.48-12.37 233.26-12.79 232.15-13.38 231.04-13.96 230.19-14.78 229.35-15.6 228.85-16.71 228.35-17.82 228.35-19.31L228.35-19.31Q228.35-22.05 229.44-23.89 230.52-25.73 232.31-26.84 234.09-27.95 236.36-28.42 238.63-28.88 240.97-28.88L240.97-28.88Q242.59-28.88 244.37-28.55 246.15-28.22 247.83-27.58 249.52-26.93 250.98-26 252.45-25.07 253.42-23.88L253.42-23.88 248.62-19.92Q248.08-21.39 247.21-22.44 246.34-23.49 245.33-24.16 244.32-24.83 243.26-25.15 242.19-25.46 241.29-25.46L241.29-25.46Q240.41-25.46 239.31-25.39 238.21-25.32 237.25-24.98 236.29-24.63 235.61-23.94 234.94-23.24 234.94-22.02L234.94-22.02Q234.94-21.14 235.35-20.52 235.75-19.9 236.41-19.45 237.07-18.99 237.91-18.69 238.75-18.38 239.63-18.15 240.51-17.92 241.34-17.75 242.17-17.58 242.83-17.38L242.83-17.38Q243.95-17.07 245.21-16.74 246.47-16.41 247.69-15.98 248.91-15.55 250.04-14.98 251.18-14.4 252.03-13.57 252.89-12.74 253.4-11.63 253.91-10.52 253.91-9.01ZM269.73-24.93L269.73 0 261.45 0 261.45-24.93 256.33-24.93 256.33-28.2 261.45-28.2 261.45-38.57 269.73-38.57 269.73-28.2 278.28-28.2 278.28-24.93 269.73-24.93ZM287.65-13.38L287.65-13.38Q289.16-13.04 290.68-12.84 292.19-12.65 293.73-12.65L293.73-12.65Q295.34-12.65 296.72-12.95 298.1-13.26 299.11-13.98 300.12-14.7 300.71-15.89 301.3-17.09 301.3-18.87L301.3-18.87Q301.3-20.31 300.91-21.51 300.51-22.71 299.75-23.56 298.98-24.41 297.85-24.89 296.73-25.37 295.24-25.37L295.24-25.37Q293.85-25.37 292.74-24.85 291.63-24.34 290.79-23.47 289.94-22.61 289.35-21.46 288.75-20.31 288.36-19.07 287.97-17.82 287.79-16.55 287.62-15.28 287.62-14.16L287.62-14.16Q287.62-13.96 287.62-13.77 287.62-13.57 287.65-13.38ZM307.99-18.95L307.99-18.95Q307.99-17.21 307.42-15.86 306.86-14.5 305.9-13.48 304.93-12.45 303.66-11.74 302.39-11.04 300.95-10.58 299.51-10.13 297.99-9.94 296.46-9.74 295.02-9.74L295.02-9.74Q293.19-9.74 291.41-10 289.63-10.25 287.89-10.82L287.89-10.82Q288.16-9.2 288.75-7.75 289.33-6.3 290.31-5.21 291.29-4.13 292.71-3.49 294.14-2.86 296.1-2.86L296.1-2.86Q297.39-2.86 298.56-3.25 299.73-3.64 300.71-4.35 301.69-5.05 302.43-6.03 303.18-7.01 303.64-8.2L303.64-8.2 307.2-6.88Q306.4-4.96 304.99-3.55 303.59-2.15 301.82-1.23 300.05-0.32 298.06 0.12 296.07 0.56 294.12 0.56L294.12 0.56Q290.9 0.56 288.16-0.52 285.43-1.61 283.45-3.56 281.47-5.52 280.35-8.23 279.23-10.94 279.23-14.16L279.23-14.16Q279.23-17.38 280.35-20.09 281.47-22.8 283.45-24.76 285.43-26.71 288.16-27.8 290.9-28.88 294.12-28.88L294.12-28.88Q295.68-28.88 297.32-28.66 298.95-28.44 300.49-27.97 302.03-27.49 303.4-26.73 304.76-25.98 305.78-24.87 306.79-23.75 307.39-22.29 307.99-20.83 307.99-18.95ZM337.11-25.71L337.11-25.71 332.47-18.02Q332.18-18.99 331.71-20.21 331.25-21.44 330.57-22.5 329.88-23.56 328.93-24.28 327.98-25 326.73-25L326.73-25Q325.59-25 324.74-24.41 323.9-23.83 323.31-22.89 322.73-21.95 322.35-20.76 321.97-19.58 321.76-18.37 321.56-17.16 321.48-16.05 321.41-14.94 321.41-14.14L321.41-14.14 321.41 0 313.13 0 313.13-28.2 316.31-28.2 319.65-21.63Q320.34-23.22 321.22-24.55 322.09-25.88 323.24-26.84 324.39-27.81 325.84-28.34 327.29-28.88 329.13-28.88L329.13-28.88Q330.08-28.88 331.25-28.72 332.42-28.56 333.54-28.19 334.67-27.81 335.62-27.2 336.57-26.59 337.11-25.71Z" opacity="1" transform="matrix(1,0,0,1,0,0)" fill="#008dda" class="wordmark-text-0" data-fill-palette-color="primary" id="text-0"></path></svg></g></svg></g></svg></g></svg></g><g transform="matrix(1,0,0,1,148.7452091525195,0)"><svg viewBox="0 0 100.00718169496095 68.0227621279383" height="68.0227621279383" width="100.00718169496095"><g><svg xmlns="http://www.w3.org/2000/svg" xmlns:xlink="http://www.w3.org/1999/xlink" version="1.1" x="8" y="0" viewBox="2.515090636728089 11.599892502015583 94.88490936327192 76.83073624092289" enable-background="new 0 0 100 100" xml:space="preserve" height="68.0227621279383" width="84.00718169496095" class="icon-icon-0" data-fill-palette-color="accent" id="icon-0"><path d="M82.2 88.4h13.3c1.1 0 1.9-0.9 1.9-1.9V48.1c0-1.1-0.9-1.9-1.9-1.9H82.2c-1.1 0-1.9 0.9-1.9 1.9v38.4C80.3 87.5 81.2 88.4 82.2 88.4zM84.2 50h9.4v34.5h-9.4V50zM39.6 88.4h13.3c1.1 0 1.9-0.9 1.9-1.9V58.3c0-1.1-0.9-1.9-1.9-1.9H39.6c-1.1 0-1.9 0.9-1.9 1.9v28.2C37.7 87.5 38.5 88.4 39.6 88.4zM51 60.2v3l-3-3H51zM44.9 60.2l6.1 6.1v3.1l-9.2-9.2H44.9zM41.6 63l9.4 9.4v3.1l-9.4-9.4V63zM41.6 69.2l9.4 9.4v3.1l-9.4-9.4V69.2zM41.6 75.3l9.2 9.2h-3.1l-6.1-6.1V75.3zM41.6 81.5l3 3h-3V81.5zM22 26.3L22 26.3c-6.6-0.1-5.6-8.9-5.6-8.9 0.3-5.9 5.2-5.8 5.7-5.8 0.5 0 5.4-0.1 5.7 5.8C27.7 17.4 28.7 26.2 22 26.3L22 26.3C22.1 26.3 22.1 26.3 22 26.3 22 26.3 22 26.3 22 26.3zM14.3 88.4L14.3 88.4c1.2 0.2 2.3-0.6 2.5-1.8l4.5-24.2 2.4 24c0.1 1.1 1 2 2.2 2 1.2 0 2.2-0.9 2.3-2.1L29.6 52l1.1-11.2c0-0.2 0.3-0.3 0.4-0.1l2.8 4c0.5 0.7 1.2 1.1 2 1.3l13.4 2.6c1.4 0.3 2.7-0.8 2.7-2.2 0-1-0.7-1.9-1.6-2.1L38.9 41l-5.4-8.5 0 0c-0.1-0.1-0.1-0.2-0.2-0.2-0.6-0.6-0.9-0.9-1.5-1.3-2.4-1.8-5.4-3-5.4-3L24 35.1l-1.3-3.8c2.4-3.3-0.3-3.4-0.6-3.4-0.4 0-3 0.1-0.6 3.4l-1.3 3.8-2.3-7.2c0 0-2.6 1.1-4.9 2.7-0.3 0.2-0.6 0.5-0.9 0.7l-8.5 9.2C2 42.2 2.2 44.9 4 46.4l10.2 8.7-1.7 31C12.4 87.2 13.2 88.2 14.3 88.4zM9 43.6l4.2-3.8 0.9 9.1L9 43.6zM59 86.5V43.1c3-2.2 5-5.7 5-9.8 0-1-0.1-1.9-0.3-2.8h10.6c1.1 0 1.9 0.9 1.9 1.9v54c0 1.1-0.9 1.9-1.9 1.9H60.9C59.9 88.4 59 87.5 59 86.5zM60 33.3c0-4.4-3.6-8.1-8.1-8.1s-8.1 3.6-8.1 8.1c0 4.4 3.6 8.1 8.1 8.1S60 37.8 60 33.3zM54.3 36.5c-0.4 0.4-0.8 0.7-1.3 0.9-0.2 0.1-0.3 0.2-0.3 0.4 0 0.2 0 0.5 0 0.7 0 0.2-0.1 0.3-0.3 0.3-0.3 0-0.5 0-0.8 0-0.2 0-0.3-0.1-0.3-0.4 0-0.2 0-0.3 0-0.5 0-0.4 0-0.4-0.4-0.5-0.5-0.1-0.9-0.2-1.4-0.4-0.3-0.2-0.4-0.2-0.3-0.6 0.1-0.3 0.1-0.5 0.2-0.8 0.1-0.3 0.2-0.3 0.5-0.2 0.5 0.2 1 0.4 1.5 0.5 0.3 0 0.7 0 1-0.1 0.6-0.3 0.7-0.9 0.2-1.4-0.2-0.1-0.4-0.2-0.6-0.3-0.5-0.2-1.1-0.4-1.6-0.7-0.8-0.5-1.3-1.1-1.2-2.1 0.1-1.1 0.7-1.8 1.7-2.1 0.4-0.2 0.4-0.1 0.4-0.6 0-0.1 0-0.3 0-0.4 0-0.3 0.1-0.4 0.4-0.4 0.1 0 0.2 0 0.3 0 0.7 0 0.7 0 0.7 0.7 0 0.5 0 0.5 0.5 0.6 0.4 0.1 0.7 0.2 1.1 0.3 0.2 0.1 0.3 0.2 0.2 0.4-0.1 0.3-0.2 0.6-0.3 0.9C54.1 31 54 31 53.7 30.9c-0.5-0.3-1.1-0.4-1.7-0.3-0.2 0-0.3 0-0.5 0.1-0.5 0.2-0.6 0.8-0.2 1.1 0.2 0.2 0.5 0.3 0.7 0.4 0.5 0.2 0.9 0.4 1.4 0.6C54.9 33.6 55.2 35.3 54.3 36.5z" fill="#41c9e2" data-fill-palette-color="accent"></path></svg></g></svg></g><g><rect width="72.21208915251952" height="4.438757516778575" y="62.58400461115972" x="248.75239084748046" fill="#067627" data-fill-palette-color="secondary"></rect><rect width="72.21208915251952" height="4.438757516778575" y="62.58400461115972" x="76.53311999999997" fill="#067627" data-fill-palette-color="secondary"></rect></g></svg></g><defs></defs></svg><rect width="395.52" height="144.20060728280978" fill="none" stroke="none" visibility="hidden"></rect></g></svg></g></svg>