<svg width="120" height="19" viewBox="0 0 120 19" fill="none" xmlns="http://www.w3.org/2000/svg">
<path d="M9.31883 14.0142C9.31883 14.5542 9.25444 15.0332 9.12565 15.4513C8.99926 15.8694 8.82516 16.2323 8.60337 16.54C8.38158 16.8478 8.11924 17.1061 7.81637 17.3152C7.51349 17.5242 7.18915 17.6926 6.84335 17.8204C6.49754 17.9481 6.13504 18.041 5.75585 18.0991C5.37666 18.1542 5.00104 18.1818 4.62901 18.1818C4.12819 18.1818 3.6858 18.1426 3.30183 18.0642C2.91787 17.9858 2.5506 17.861 2.20003 17.6897C1.85184 17.5155 1.50484 17.2905 1.15904 17.0147C0.810851 16.736 0.424504 16.3992 0 16.0044L1.72067 14.2929C1.87807 14.6529 2.08675 14.9795 2.3467 15.2727C2.60426 15.5689 2.87256 15.8229 3.15159 16.0348C3.433 16.2468 3.70368 16.4094 3.96363 16.5226C4.22597 16.6358 4.43941 16.6924 4.60397 16.6924C4.73752 16.6924 4.88896 16.6881 5.05828 16.6794C5.22522 16.6678 5.39693 16.646 5.57341 16.614C5.7475 16.5821 5.91921 16.5342 6.08854 16.4703C6.25548 16.4065 6.40453 16.3194 6.5357 16.209C6.66687 16.0987 6.7718 15.9608 6.8505 15.7953C6.9292 15.6298 6.96855 15.4295 6.96855 15.1943C6.96855 14.9534 6.91847 14.7429 6.8183 14.5629C6.71576 14.3829 6.5822 14.2246 6.41765 14.0882C6.25548 13.9546 6.06946 13.8414 5.85959 13.7485C5.64972 13.6556 5.43866 13.5743 5.22641 13.5046C5.01416 13.4349 4.80906 13.3725 4.61112 13.3174C4.41318 13.2651 4.24147 13.2143 4.09599 13.1649C3.82889 13.072 3.54628 12.9777 3.24817 12.8819C2.95245 12.7861 2.65911 12.6757 2.36816 12.5509C2.07721 12.429 1.79818 12.2823 1.53108 12.111C1.26636 11.9427 1.03384 11.7394 0.833507 11.5014C0.633179 11.2633 0.473394 10.9831 0.354151 10.6609C0.234908 10.3386 0.175287 9.96117 0.175287 9.52858C0.175287 8.73308 0.304069 8.06823 0.561634 7.53402C0.821583 6.99982 1.16381 6.57158 1.58831 6.24932C2.0152 5.92705 2.49933 5.69769 3.04069 5.56124C3.58205 5.42769 4.13176 5.36091 4.68982 5.36091C5.07378 5.36091 5.47801 5.40882 5.90252 5.50463C6.32941 5.60043 6.74318 5.74124 7.14384 5.92705C7.54688 6.11577 7.92249 6.34513 8.27068 6.61513C8.62126 6.88514 8.91221 7.19289 9.14354 7.53838L7.42287 9.26293C7.29647 8.83614 7.12953 8.47033 6.92205 8.16549C6.71456 7.86064 6.49039 7.61096 6.24952 7.41644C6.00865 7.22192 5.76062 7.07821 5.50544 6.9853C5.25265 6.8953 5.01893 6.8503 4.80429 6.8503C4.59443 6.8503 4.35833 6.86046 4.09599 6.88078C3.83366 6.90111 3.58802 6.96062 3.35907 7.05934C3.12774 7.16095 2.93218 7.31192 2.7724 7.51225C2.61261 7.71548 2.53272 7.99419 2.53272 8.34839C2.53272 8.60388 2.58041 8.82163 2.67581 9.00163C2.77359 9.18164 2.90118 9.33696 3.05858 9.46761C3.21359 9.60116 3.39246 9.71148 3.59517 9.79858C3.7955 9.88859 4.0006 9.96697 4.21046 10.0337C4.42033 10.1005 4.62424 10.1586 4.82218 10.2079C5.02012 10.2573 5.19779 10.311 5.35519 10.3691C5.6223 10.4591 5.9061 10.552 6.20659 10.6478C6.5047 10.7436 6.79923 10.8539 7.09018 10.9788C7.38352 11.1036 7.66493 11.2488 7.93442 11.4143C8.20629 11.5827 8.44358 11.7873 8.6463 12.0283C8.84901 12.2693 9.01237 12.5509 9.13638 12.8732C9.25801 13.1954 9.31883 13.5758 9.31883 14.0142ZM21.3349 5.65705V17.9379H18.3837V16.4703C18.0331 17.051 17.6122 17.4821 17.1209 17.7637C16.6296 18.0425 16.0894 18.1818 15.5004 18.1818C14.7325 18.1818 14.0456 18.0149 13.4399 17.681C12.8341 17.35 12.3214 16.8957 11.9016 16.3179C11.4843 15.7402 11.1647 15.0608 10.9429 14.2798C10.7211 13.5017 10.6102 12.6656 10.6102 11.7714C10.6102 10.8772 10.7211 10.041 10.9429 9.26293C11.1647 8.48194 11.4843 7.80258 11.9016 7.22482C12.3214 6.64707 12.8341 6.1927 13.4399 5.86173C14.0456 5.52785 14.7325 5.36091 15.5004 5.36091C15.8915 5.36091 16.2635 5.43204 16.6165 5.57431C16.9671 5.71366 17.2902 5.91399 17.5859 6.17528C17.8793 6.43368 18.138 6.74433 18.3622 7.10724C18.5864 7.47305 18.7629 7.87951 18.8916 8.32662L20.2009 5.65705H21.3349ZM18.3658 11.7714C18.3658 11.452 18.3527 11.1152 18.3264 10.761C18.3002 10.4068 18.2549 10.0555 18.1905 9.70713C18.1261 9.36164 18.0379 9.03066 17.9258 8.71421C17.8113 8.39775 17.6658 8.11758 17.4893 7.87371C17.3105 7.62983 17.0958 7.43676 16.8454 7.2945C16.595 7.15224 16.3041 7.08111 15.9726 7.08111C15.6411 7.08111 15.3525 7.15369 15.1069 7.29886C14.8636 7.44402 14.6549 7.63999 14.4808 7.88677C14.3044 8.13065 14.1601 8.41227 14.048 8.73163C13.9335 9.05099 13.8441 9.38341 13.7797 9.7289C13.7153 10.0773 13.67 10.4271 13.6438 10.7784C13.6175 11.1297 13.6044 11.4607 13.6044 11.7714C13.6044 12.082 13.6175 12.4144 13.6438 12.7686C13.67 13.1257 13.7153 13.477 13.7797 13.8225C13.8441 14.1709 13.9335 14.5048 14.048 14.8242C14.1601 15.1435 14.3044 15.4251 14.4808 15.669C14.6549 15.9129 14.8636 16.1074 15.1069 16.2526C15.3525 16.3977 15.6411 16.4703 15.9726 16.4703C16.2755 16.4703 16.5449 16.3948 16.781 16.2439C17.0171 16.09 17.2234 15.8853 17.3999 15.6298C17.5788 15.3743 17.729 15.084 17.8507 14.7588C17.9723 14.4337 18.0712 14.0969 18.1476 13.7485C18.2239 13.4001 18.2787 13.0546 18.3121 12.712C18.3479 12.3694 18.3658 12.0559 18.3658 11.7714ZM26.7509 3.73217V17.9379H23.7961V0H24.9337L26.7509 3.73217ZM31.6375 12.111C32 12.2098 32.3613 12.2881 32.7214 12.3462C33.0839 12.4014 33.4476 12.429 33.8125 12.429C34.1988 12.429 34.5554 12.3854 34.8821 12.2983C35.2112 12.2083 35.4974 12.0588 35.7406 11.8498C35.9815 11.6407 36.1723 11.3635 36.313 11.018C36.4513 10.6696 36.5205 10.237 36.5205 9.72019C36.5205 9.30212 36.474 8.91889 36.381 8.57049C36.288 8.2221 36.1497 7.92451 35.966 7.67773C35.7824 7.43096 35.557 7.23789 35.2899 7.09853C35.0228 6.95917 34.7116 6.88949 34.3562 6.88949C34.0247 6.88949 33.7266 6.96498 33.4619 7.11595C33.1948 7.26402 32.9611 7.46434 32.7608 7.71693C32.5604 7.96661 32.3887 8.25839 32.2456 8.59227C32.1026 8.92615 31.9845 9.27309 31.8915 9.6331C31.7985 9.99601 31.7317 10.3618 31.6912 10.7305C31.6506 11.0993 31.6303 11.4462 31.6303 11.7714C31.6303 11.8294 31.6303 11.886 31.6303 11.9412C31.6303 11.9993 31.6327 12.0559 31.6375 12.111ZM38.9137 9.68536C38.9137 10.1905 38.8469 10.6391 38.7134 11.031C38.5798 11.4259 38.3974 11.7714 38.166 12.0675C37.9371 12.3665 37.6712 12.6191 37.3683 12.8253C37.0654 13.0285 36.7423 13.1969 36.3989 13.3304C36.0555 13.4611 35.7013 13.554 35.3364 13.6091C34.9739 13.6672 34.621 13.6962 34.2775 13.6962C33.8411 13.6962 33.4095 13.6585 32.9826 13.583C32.5581 13.5104 32.1395 13.3914 31.7269 13.2259C31.7913 13.6962 31.8927 14.1419 32.031 14.5629C32.1717 14.9838 32.3589 15.3526 32.5926 15.669C32.824 15.9826 33.1101 16.2323 33.4512 16.4181C33.7922 16.601 34.1953 16.6924 34.6603 16.6924C34.9703 16.6924 35.2649 16.6358 35.5439 16.5226C35.8229 16.4094 36.0793 16.2497 36.313 16.0435C36.5443 15.8403 36.7494 15.5964 36.9283 15.3119C37.1048 15.0274 37.2491 14.7124 37.3612 14.3669L38.6347 14.9418C38.4415 15.4992 38.178 15.9826 37.8441 16.3919C37.5102 16.7984 37.1322 17.1352 36.7101 17.4023C36.288 17.6665 35.8396 17.8625 35.365 17.9902C34.8904 18.1179 34.4194 18.1818 33.952 18.1818C33.1841 18.1818 32.4746 18.025 31.8235 17.7115C31.1701 17.395 30.6084 16.9537 30.1386 16.3876C29.6664 15.8185 29.2968 15.1406 29.0297 14.3538C28.7602 13.567 28.6254 12.7062 28.6254 11.7714C28.6254 10.8365 28.7602 9.97568 29.0297 9.18889C29.2968 8.4021 29.6664 7.72419 30.1386 7.15514C30.6084 6.589 31.1701 6.1477 31.8235 5.83125C32.4746 5.51769 33.1841 5.36091 33.952 5.36091C34.3264 5.36091 34.708 5.39285 35.0967 5.45672C35.4879 5.52059 35.867 5.62076 36.2343 5.75721C36.5992 5.89657 36.945 6.07657 37.2717 6.29722C37.5984 6.51497 37.8823 6.78497 38.1231 7.10724C38.3664 7.43241 38.5584 7.80693 38.6991 8.23081C38.8422 8.65469 38.9137 9.13954 38.9137 9.68536ZM49.4381 14.0142C49.4381 14.5542 49.3737 15.0332 49.2449 15.4513C49.1161 15.8694 48.942 16.2323 48.7226 16.54C48.5008 16.8478 48.2385 17.1061 47.9356 17.3152C47.6327 17.5242 47.3084 17.6926 46.9626 17.8204C46.6144 17.9481 46.2519 18.041 45.8751 18.0991C45.4959 18.1542 45.1203 18.1818 44.7482 18.1818C44.2474 18.1818 43.805 18.1426 43.4211 18.0642C43.0371 17.9858 42.6698 17.861 42.3193 17.6897C41.9711 17.5155 41.6229 17.2905 41.2747 17.0147C40.9289 16.736 40.5437 16.3992 40.1192 16.0044L41.8399 14.2929C41.9973 14.6529 42.2048 14.9795 42.4624 15.2727C42.7223 15.5689 42.9918 15.8229 43.2708 16.0348C43.5499 16.2468 43.8205 16.4094 44.0829 16.5226C44.3452 16.6358 44.5575 16.6924 44.7196 16.6924C44.8556 16.6924 45.007 16.6881 45.174 16.6794C45.3433 16.6678 45.515 16.646 45.6891 16.614C45.8656 16.5821 46.0373 16.5342 46.2042 16.4703C46.3735 16.4065 46.5238 16.3194 46.6549 16.209C46.7861 16.0987 46.891 15.9608 46.9697 15.7953C47.0484 15.6298 47.0878 15.4295 47.0878 15.1943C47.0878 14.9534 47.0365 14.7429 46.934 14.5629C46.8338 14.3829 46.7014 14.2246 46.5369 14.0882C46.3747 13.9546 46.1887 13.8414 45.9788 13.7485C45.769 13.6556 45.5579 13.5743 45.3457 13.5046C45.1334 13.4349 44.9283 13.3725 44.7304 13.3174C44.5324 13.2651 44.3607 13.2143 44.2152 13.1649C43.9481 13.072 43.6655 12.9777 43.3674 12.8819C43.0717 12.7861 42.7772 12.6757 42.4838 12.5509C42.1929 12.429 41.915 12.2823 41.6503 12.111C41.3856 11.9427 41.1531 11.7394 40.9528 11.5014C40.7524 11.2633 40.5926 10.9831 40.4734 10.6609C40.3542 10.3386 40.2945 9.96117 40.2945 9.52858C40.2945 8.73308 40.4233 8.06823 40.6809 7.53402C40.9408 6.99982 41.2831 6.57158 41.7076 6.24932C42.1321 5.92705 42.615 5.69769 43.1564 5.56124C43.6977 5.42769 44.2486 5.36091 44.8091 5.36091C45.193 5.36091 45.5973 5.40882 46.0218 5.50463C46.4463 5.60043 46.86 5.74124 47.2631 5.92705C47.6637 6.11577 48.0393 6.34513 48.3899 6.61513C48.7381 6.88514 49.0291 7.19289 49.2628 7.53838L47.5421 9.26293C47.4133 8.83614 47.2464 8.47033 47.0413 8.16549C46.8338 7.86064 46.6096 7.61096 46.3688 7.41644C46.1255 7.22192 45.8775 7.07821 45.6247 6.9853C45.3719 6.8953 45.1382 6.8503 44.9235 6.8503C44.7137 6.8503 44.4776 6.86046 44.2152 6.88078C43.9529 6.90111 43.7073 6.96062 43.4783 7.05934C43.247 7.16095 43.0514 7.31192 42.8916 7.51225C42.7319 7.71548 42.652 7.99419 42.652 8.34839C42.652 8.60388 42.6997 8.82163 42.7951 9.00163C42.8904 9.18164 43.0168 9.33696 43.1742 9.46761C43.3316 9.60116 43.5105 9.71148 43.7108 9.79858C43.9136 9.88859 44.1198 9.96697 44.3297 10.0337C44.5372 10.1005 44.7399 10.1586 44.9378 10.2079C45.1382 10.2573 45.3158 10.311 45.4709 10.3691C45.7404 10.4591 46.0241 10.552 46.3223 10.6478C46.6227 10.7436 46.9185 10.8539 47.2094 10.9788C47.5004 11.1036 47.7818 11.2488 48.0537 11.4143C48.3232 11.5827 48.5604 11.7873 48.7655 12.0283C48.9683 12.2693 49.1316 12.5509 49.2556 12.8732C49.3773 13.1954 49.4381 13.5758 49.4381 14.0142ZM56.8681 17.9379L53.9955 6.51932L53.0189 17.9379H50.8761L53.0189 2.62602H56.1884L59.1325 14.3103L62.1088 2.62602H65.2783L67.0598 17.9379H63.5326L62.4916 6.81546L60.0376 17.9379H56.8681ZM79.0938 5.65705V17.9379H76.1425V16.4703C75.7943 17.051 75.3734 17.4821 74.8797 17.7637C74.3884 18.0425 73.8483 18.1818 73.2592 18.1818C72.4913 18.1818 71.8044 18.0149 71.1987 17.681C70.5929 17.35 70.0814 16.8957 69.664 16.3179C69.2443 15.7402 68.9235 15.0608 68.7018 14.2798C68.48 13.5017 68.3691 12.6656 68.3691 11.7714C68.3691 10.8772 68.48 10.041 68.7018 9.26293C68.9235 8.48194 69.2443 7.80258 69.664 7.22482C70.0814 6.64707 70.5929 6.1927 71.1987 5.86173C71.8044 5.52785 72.4913 5.36091 73.2592 5.36091C73.6503 5.36091 74.0224 5.43204 74.3753 5.57431C74.7259 5.71366 75.049 5.91399 75.3448 6.17528C75.6381 6.43368 75.8969 6.74433 76.121 7.10724C76.3452 7.47305 76.5217 7.87951 76.6505 8.32662L77.9598 5.65705H79.0938ZM76.1246 11.7714C76.1246 11.452 76.1115 11.1152 76.0853 10.761C76.059 10.4068 76.0137 10.0555 75.9493 9.70713C75.8873 9.36164 75.7991 9.03066 75.6846 8.71421C75.5701 8.39775 75.4247 8.11758 75.2482 7.87371C75.0693 7.62983 74.8547 7.43676 74.6043 7.2945C74.3539 7.15224 74.0629 7.08111 73.7314 7.08111C73.3999 7.08111 73.1125 7.15369 72.8693 7.29886C72.6236 7.44402 72.4138 7.63999 72.2397 7.88677C72.0656 8.13065 71.9213 8.41227 71.8068 8.73163C71.6924 9.05099 71.6041 9.38341 71.5421 9.7289C71.4777 10.0773 71.4324 10.4271 71.4062 10.7784C71.3799 11.1297 71.3668 11.4607 71.3668 11.7714C71.3668 12.082 71.3799 12.4144 71.4062 12.7686C71.4324 13.1257 71.4777 13.477 71.5421 13.8225C71.6041 14.1709 71.6924 14.5048 71.8068 14.8242C71.9213 15.1435 72.0656 15.4251 72.2397 15.669C72.4138 15.9129 72.6236 16.1074 72.8693 16.2526C73.1125 16.3977 73.3999 16.4703 73.7314 16.4703C74.0343 16.4703 74.3038 16.3948 74.5399 16.2439C74.776 16.09 74.9823 15.8853 75.1587 15.6298C75.3376 15.3743 75.4879 15.084 75.6095 14.7588C75.7311 14.4337 75.8301 14.0969 75.9064 13.7485C75.9827 13.4001 76.0388 13.0546 76.0745 12.712C76.1079 12.3694 76.1246 12.0559 76.1246 11.7714ZM90.237 14.0142C90.237 14.5542 90.1738 15.0332 90.0474 15.4513C89.9186 15.8694 89.7433 16.2323 89.5215 16.54C89.2998 16.8478 89.0374 17.1061 88.7345 17.3152C88.4317 17.5242 88.1073 17.6926 87.7615 17.8204C87.4157 17.9481 87.0532 18.041 86.674 18.0991C86.2972 18.1542 85.9216 18.1818 85.5472 18.1818C85.0464 18.1818 84.604 18.1426 84.22 18.0642C83.836 17.9858 83.47 17.861 83.1218 17.6897C82.7712 17.5155 82.423 17.2905 82.0772 17.0147C81.7314 16.736 81.3451 16.3992 80.9182 16.0044L82.6388 14.2929C82.7962 14.6529 83.0049 14.9795 83.2649 15.2727C83.5224 15.5689 83.7919 15.8229 84.0733 16.0348C84.3524 16.2468 84.623 16.4094 84.8854 16.5226C85.1477 16.6358 85.36 16.6924 85.5221 16.6924C85.6557 16.6924 85.8071 16.6881 85.9765 16.6794C86.1458 16.6678 86.3175 16.646 86.4916 16.614C86.6657 16.5821 86.8374 16.5342 87.0067 16.4703C87.176 16.4065 87.3263 16.3194 87.4575 16.209C87.5886 16.0987 87.6936 15.9608 87.7723 15.7953C87.851 15.6298 87.8903 15.4295 87.8903 15.1943C87.8903 14.9534 87.839 14.7429 87.7365 14.5629C87.6339 14.3829 87.5016 14.2246 87.3394 14.0882C87.1748 13.9546 86.9888 13.8414 86.7813 13.7485C86.5715 13.6556 86.3604 13.5743 86.1482 13.5046C85.9335 13.4349 85.7272 13.3725 85.5293 13.3174C85.3314 13.2651 85.1596 13.2143 85.0142 13.1649C84.7471 13.072 84.4656 12.9777 84.1699 12.8819C83.8718 12.7861 83.5773 12.6757 83.2863 12.5509C82.9954 12.429 82.7175 12.2823 82.4528 12.111C82.1881 11.9427 81.9544 11.7394 81.7517 11.5014C81.5514 11.2633 81.3916 10.9831 81.2723 10.6609C81.1531 10.3386 81.0935 9.96117 81.0935 9.52858C81.0935 8.73308 81.2234 8.06823 81.4834 7.53402C81.741 6.99982 82.0832 6.57158 82.5101 6.24932C82.9346 5.92705 83.4175 5.69769 83.9589 5.56124C84.5002 5.42769 85.0499 5.36091 85.608 5.36091C85.9943 5.36091 86.3998 5.40882 86.8243 5.50463C87.2488 5.60043 87.6614 5.74124 88.062 5.92705C88.465 6.11577 88.8407 6.34513 89.1889 6.61513C89.5394 6.88514 89.8304 7.19289 90.0617 7.53838L88.3446 9.26293C88.2158 8.83614 88.0477 8.47033 87.8402 8.16549C87.6327 7.86064 87.4086 7.61096 87.1677 7.41644C86.9268 7.22192 86.68 7.07821 86.4272 6.9853C86.172 6.8953 85.9371 6.8503 85.7225 6.8503C85.5126 6.8503 85.2765 6.86046 85.0142 6.88078C84.7518 6.90111 84.5062 6.96062 84.2772 7.05934C84.0483 7.16095 83.8527 7.31192 83.6906 7.51225C83.5308 7.71548 83.4509 7.99419 83.4509 8.34839C83.4509 8.60388 83.4998 8.82163 83.5976 9.00163C83.693 9.18164 83.8194 9.33696 83.9768 9.46761C84.1342 9.60116 84.313 9.71148 84.5133 9.79858C84.7137 9.88859 84.9188 9.96697 85.1286 10.0337C85.3385 10.1005 85.5424 10.1586 85.7404 10.2079C85.9383 10.2573 86.116 10.311 86.2734 10.3691C86.5405 10.4591 86.8243 10.552 87.1248 10.6478C87.4253 10.7436 87.721 10.8539 88.0119 10.9788C88.3029 11.1036 88.5831 11.2488 88.8526 11.4143C89.1245 11.5827 89.3618 11.7873 89.5645 12.0283C89.7696 12.2693 89.9329 12.5509 90.0546 12.8732C90.1762 13.1954 90.237 13.5758 90.237 14.0142ZM95.8963 7.08111V17.9379H92.9343V7.08111H91.1027V5.65705H92.9343V1.14099H95.8963V5.65705H98.9548V7.08111H95.8963ZM102.307 12.111C102.667 12.2098 103.028 12.2881 103.391 12.3462C103.751 12.4014 104.114 12.429 104.482 12.429C104.866 12.429 105.222 12.3854 105.551 12.2983C105.88 12.2083 106.165 12.0588 106.406 11.8498C106.647 11.6407 106.838 11.3635 106.979 11.018C107.119 10.6696 107.19 10.237 107.19 9.72019C107.19 9.30212 107.143 8.91889 107.05 8.57049C106.955 8.2221 106.817 7.92451 106.635 7.67773C106.452 7.43096 106.225 7.23789 105.956 7.09853C105.688 6.95917 105.377 6.88949 105.022 6.88949C104.69 6.88949 104.392 6.96498 104.128 7.11595C103.863 7.26402 103.63 7.46434 103.43 7.71693C103.227 7.96661 103.056 8.25839 102.915 8.59227C102.772 8.92615 102.654 9.27309 102.561 9.6331C102.468 9.99601 102.4 10.3618 102.357 10.7305C102.316 11.0993 102.296 11.4462 102.296 11.7714C102.296 11.8294 102.296 11.886 102.296 11.9412C102.296 11.9993 102.3 12.0559 102.307 12.111ZM109.583 9.68536C109.583 10.1905 109.515 10.6391 109.379 11.031C109.246 11.4259 109.064 11.7714 108.835 12.0675C108.604 12.3665 108.337 12.6191 108.034 12.8253C107.731 13.0285 107.408 13.1969 107.065 13.3304C106.721 13.4611 106.368 13.554 106.006 13.6091C105.641 13.6672 105.287 13.6962 104.943 13.6962C104.507 13.6962 104.076 13.6585 103.652 13.583C103.227 13.5104 102.808 13.3914 102.393 13.2259C102.457 13.6962 102.56 14.1419 102.7 14.5629C102.839 14.9838 103.025 15.3526 103.258 15.669C103.492 15.9826 103.778 16.2323 104.117 16.4181C104.458 16.601 104.862 16.6924 105.33 16.6924C105.637 16.6924 105.931 16.6358 106.21 16.5226C106.489 16.4094 106.745 16.2497 106.979 16.0435C107.212 15.8403 107.418 15.5964 107.594 15.3119C107.773 15.0274 107.917 14.7124 108.027 14.3669L109.3 14.9418C109.11 15.4992 108.846 15.9826 108.51 16.3919C108.176 16.7984 107.798 17.1352 107.376 17.4023C106.954 17.6665 106.505 17.8625 106.031 17.9902C105.556 18.1179 105.086 18.1818 104.621 18.1818C103.853 18.1818 103.143 18.025 102.489 17.7115C101.838 17.395 101.277 16.9537 100.804 16.3876C100.332 15.8185 99.9624 15.1406 99.6953 14.3538C99.4282 13.567 99.2947 12.7062 99.2947 11.7714C99.2947 10.8365 99.4282 9.97568 99.6953 9.18889C99.9624 8.4021 100.332 7.72419 100.804 7.15514C101.277 6.589 101.838 6.1477 102.489 5.83125C103.143 5.51769 103.853 5.36091 104.621 5.36091C104.993 5.36091 105.375 5.39285 105.766 5.45672C106.155 5.52059 106.533 5.62076 106.9 5.75721C107.267 5.89657 107.614 6.07657 107.941 6.29722C108.265 6.51497 108.549 6.78497 108.792 7.10724C109.033 7.43241 109.225 7.80693 109.368 8.23081C109.511 8.65469 109.583 9.13954 109.583 9.68536ZM120 6.74143L118.34 10.0904C118.271 9.80875 118.18 9.49084 118.068 9.13663C117.959 8.77953 117.823 8.4471 117.66 8.13936C117.496 7.83161 117.3 7.57322 117.074 7.36418C116.847 7.15514 116.585 7.05063 116.287 7.05063C116.015 7.05063 115.778 7.13627 115.575 7.30757C115.375 7.47596 115.204 7.69661 115.063 7.96951C114.925 8.24242 114.811 8.55162 114.72 8.89711C114.629 9.2397 114.559 9.58664 114.509 9.93794C114.461 10.2892 114.428 10.626 114.409 10.9483C114.392 11.2705 114.384 11.5478 114.384 11.7801V17.9379H111.422V5.65705H112.559L113.754 8.51824C113.919 8.05661 114.106 7.63273 114.316 7.2466C114.523 6.86046 114.764 6.52803 115.038 6.24932C115.313 5.9677 115.623 5.74995 115.968 5.59608C116.314 5.4393 116.707 5.36091 117.145 5.36091C117.372 5.36091 117.625 5.38414 117.904 5.43059C118.183 5.47705 118.456 5.55398 118.723 5.6614C118.992 5.77173 119.24 5.91544 119.467 6.09254C119.694 6.26964 119.871 6.48594 120 6.74143Z" fill="#008DDA"/>
</svg>
