<svg width="25" height="24" viewBox="0 0 25 24" fill="none" xmlns="http://www.w3.org/2000/svg">
<path d="M9.75697 0.000305176C6.84641 0.000305176 4.4878 2.15564 4.48781 4.81544C4.48782 5.27931 4.72436 6.573 5.23603 7.28916C5.23603 7.28916 7.15839 8.89608 9.75211 11.0125C7.4763 11.0282 5.00216 11.0375 3.12156 12.1677C1.78389 12.9716 0.774406 14.3892 0.463252 15.8243C0.217186 16.9593 -0.764562 18.3569 1.20052 19.2286C2.00379 19.5849 4.72098 21.591 7.83715 23.8269C8.5703 23.928 9.32026 23.9815 10.0842 23.9815C18.0182 23.9815 24.505 18.3322 24.9999 11.196C19.3465 6.21664 12.2085 0.55175 12.2085 0.55175C11.4749 0.175202 10.2019 0.000305176 9.75697 0.000305176Z" fill="black" fill-opacity="0.196078"/>
<path d="M9.75743 9.63193C12.668 9.63193 15.0275 7.47575 15.0275 4.81597C15.0275 2.15619 12.668 0 9.75743 0C6.84685 0 4.48737 2.15619 4.48737 4.81597C4.48737 7.47575 6.84685 9.63193 9.75743 9.63193Z" fill="white"/>
<path d="M19.8046 15.8238C20.0039 16.9712 20.8639 18.3437 18.941 19.2187C17.0181 20.0937 13.1484 20.6398 10.1339 20.6398C7.11935 20.6398 3.16524 20.1004 1.20016 19.2288C-0.764927 18.3571 0.217083 16.9587 0.463148 15.8238C0.774303 14.3886 1.78357 12.972 3.12123 12.168C5.10605 10.9753 7.75844 11.0285 10.1339 11.0078C12.5611 10.9868 15.3111 10.8272 17.3229 12.0683C18.6493 12.8864 19.5537 14.3795 19.8046 15.8238Z" fill="white"/>
<path d="M10.0843 20.512L7.9866 17.7935L10.0843 13.2066L12.1821 17.7935L10.0843 20.512ZM10.0843 13.7012L7.9866 10.9828H12.1821L10.0843 13.7012Z" fill="#4F5D73"/>
</svg>
