<svg width="49" height="35" viewBox="0 0 49 35" fill="none" xmlns="http://www.w3.org/2000/svg">
<path d="M46.55 0H2.45C1.09714 0 0 1.09714 0 2.45V31.85C0 33.2029 1.09714 34.3 2.45 34.3H46.55C47.9029 34.3 49 33.2029 49 31.85V2.45C49 1.09714 47.9029 0 46.55 0ZM13.475 22.6533V23.8875C13.475 24.2259 13.2009 24.5 12.8625 24.5H11.6375C11.2991 24.5 11.025 24.2259 11.025 23.8875V22.6403C10.1606 22.5959 9.31995 22.2942 8.62323 21.7713C8.32464 21.547 8.30933 21.0999 8.57959 20.8418L9.4792 19.9836C9.69128 19.7815 10.0067 19.7723 10.2548 19.9277C10.5511 20.113 10.8872 20.2125 11.2363 20.2125H13.3885C13.8861 20.2125 14.2919 19.7592 14.2919 19.2026C14.2919 18.7471 14.0155 18.3459 13.6205 18.228L10.1752 17.1944C8.75186 16.7672 7.75731 15.4013 7.75731 13.8724C7.75731 11.995 9.21583 10.4699 11.0242 10.4217V9.1875C11.0242 8.84909 11.2983 8.575 11.6367 8.575H12.8617C13.2001 8.575 13.4742 8.84909 13.4742 9.1875V10.4347C14.3386 10.4791 15.1793 10.78 15.876 11.3037C16.1746 11.528 16.1899 11.9751 15.9196 12.2332L15.02 13.0914C14.808 13.2935 14.4925 13.3027 14.2445 13.1473C13.9482 12.9613 13.612 12.8625 13.2629 12.8625H11.1107C10.6131 12.8625 10.2073 13.3157 10.2073 13.8724C10.2073 14.3279 10.4837 14.7291 10.8788 14.847L14.3241 15.8806C15.7474 16.3078 16.7419 17.6737 16.7419 19.2026C16.7419 21.0807 15.2834 22.6051 13.475 22.6533ZM31.85 21.4375C31.85 21.7759 31.5759 22.05 31.2375 22.05H22.6625C22.3241 22.05 22.05 21.7759 22.05 21.4375V20.2125C22.05 19.8741 22.3241 19.6 22.6625 19.6H31.2375C31.5759 19.6 31.85 19.8741 31.85 20.2125V21.4375ZM44.1 21.4375C44.1 21.7759 43.8259 22.05 43.4875 22.05H37.3625C37.0241 22.05 36.75 21.7759 36.75 21.4375V20.2125C36.75 19.8741 37.0241 19.6 37.3625 19.6H43.4875C43.8259 19.6 44.1 19.8741 44.1 20.2125V21.4375ZM44.1 14.0875C44.1 14.4259 43.8259 14.7 43.4875 14.7H22.6625C22.3241 14.7 22.05 14.4259 22.05 14.0875V12.8625C22.05 12.5241 22.3241 12.25 22.6625 12.25H43.4875C43.8259 12.25 44.1 12.5241 44.1 12.8625V14.0875Z" fill="#FA7070"/>
</svg>
